<svg xmlns="http://www.w3.org/2000/svg" version="1.1" xmlns:xlink="http://www.w3.org/1999/xlink" xmlns:svgjs="http://svgjs.com/svgjs" viewBox="0 0 100 100" width="100" height="100"><g transform="matrix(0.2702702702702703,0,0,0.2702702702702703,0,0)"><path d="M204.12,76.74a98.8,98.8,0,0,0-57.58,179.1h0a46.82,46.82,0,0,0,7,31.28h0V327.4h111V253.7a98.79,98.79,0,0,0-60.43-177Z" fill="#ffffff"></path><path d="M203.82,303.33q-27-11.81-52.56-24.81A470.16,470.16,0,0,0,203.82,303.33Z" fill="none"></path><path d="M316.87,206.68c-75.45-346.11-449.77-86-165.61,71.84q25.5,13,52.56,24.81,13.63,5.51,28.67,10.71l85.83-80.91Q317.78,219.8,316.87,206.68Z" fill="#fffacf"></path><path d="M231.51,315l33-31.15V253.7a98.61,98.61,0,0,0,38.38-78.15c0-3-.16-6-.42-8.9L296,139.09A98.81,98.81,0,1,0,145.76,255.28l3.57,2.49c1.39.92,2.79,1.82,4.23,2.68v.26Z" fill="#fffef2"></path><path d="M157.78,263.65a98.83,98.83,0,0,1,134.31-133A98.8,98.8,0,1,0,145.76,255.28l3.57,2.49c1.39.92,2.79,1.82,4.23,2.68v.26Z" fill="#fff48c"></path><path d="M153.56 287.14L153.56 327.4" fill="none" stroke="#45413c" stroke-linecap="round" stroke-linejoin="round" stroke-width="4"></path><path d="M264.55,327.4V253.7a98.81,98.81,0,1,0-118,2.14" fill="none" stroke="#45413c" stroke-linecap="round" stroke-linejoin="round" stroke-width="4"></path><path d="M65.06,160.18c0-4.13,3.33-7.47,6.76-7.38l36-.05c11.68-43,50.6-74.79,97-74.85a99.53,99.53,0,0,1,99.14,89.43l-94.36.12-91.84.12-45.16.06A7.45,7.45,0,0,1,65.06,160.18Z" fill="#ff6242"></path><path d="M250.56,155a14.92,14.92,0,0,0-14.95-14.91c-10.08,0-14.91,6.95-14.9,14.95Z" fill="#ffffff"></path><path d="M194.800 77.900 A9.950 9.950 0 1 0 214.700 77.900 A9.950 9.950 0 1 0 194.800 77.900 Z" fill="#ff6242" stroke="#45413c" stroke-linecap="round" stroke-linejoin="round" stroke-width="4"></path><path d="M294.23,133.59A99.51,99.51,0,0,0,204.75,77.9c-38.79,0-72.35,22.3-89.13,54.76a121.64,121.64,0,0,1,178.61.93Z" fill="#ff866e"></path><path d="M72.53,167.63l45.16-.06,91.84-.12,94.36-.12A99.53,99.53,0,0,0,204.75,77.9c-46.36.06-85.28,31.82-97,74.85l-36,.05c-3.43-.09-6.76,3.25-6.76,7.38A7.45,7.45,0,0,0,72.53,167.63ZM220.71,155c0-8,4.82-14.94,14.9-14.95A14.92,14.92,0,0,1,250.56,155Z" fill="none" stroke="#45413c" stroke-linecap="round" stroke-linejoin="round" stroke-width="4"></path><path d="M220.71,155h-6.22a5,5,0,0,0-5,5v7.46" fill="none" stroke="#45413c" stroke-linecap="round" stroke-linejoin="round" stroke-width="4"></path><path d="M106.59,159.55c.41-2.26.64-4.59,1.2-6.8" fill="#ffffff" stroke="#45413c" stroke-linecap="round" stroke-linejoin="round" stroke-width="4"></path><path d="M309.81,310.36a5.36,5.36,0,0,1-5.3,4.61h-73l11.29-83.69h71.48a5.37,5.37,0,0,1,5.3,6.12Z" fill="#f0f0f0" stroke="#45413c" stroke-linecap="round" stroke-linejoin="round" stroke-width="4"></path><path d="M242.8,231.28,231.51,315h1.24a8.43,8.43,0,0,0,8.35-7.25l9.06-68a7.44,7.44,0,0,0-7.36-8.48Z" fill="#bdbec0" stroke="#45413c" stroke-linecap="round" stroke-linejoin="round" stroke-width="4"></path><path d="M182.27,276.55c8.58,13.06,17.62,17.48,43.57,3.64a13.18,13.18,0,1,1,12.4,23.25c-6.15,3.27-35.94,23.4-67.58,1.32-19.13-13.35-26.45-32.13-24.12-48.92" fill="#ffffff" stroke="#45413c" stroke-linecap="round" stroke-linejoin="round" stroke-width="4"></path><path d="M297.140 286.850 A13.170 13.170 0 1 0 323.480 286.850 A13.170 13.170 0 1 0 297.140 286.850 Z" fill="#ffffff" stroke="#45413c" stroke-linecap="round" stroke-linejoin="round" stroke-width="4"></path><path d="M156.150 170.300 A30.300 30.300 0 1 0 216.750 170.300 A30.300 30.300 0 1 0 156.150 170.300 Z" fill="#ffffff" stroke="#45413c" stroke-linecap="round" stroke-linejoin="round" stroke-width="4"></path><path d="M244.480 170.300 A30.300 30.300 0 1 0 305.080 170.300 A30.300 30.300 0 1 0 244.480 170.300 Z" fill="#ffffff" stroke="#45413c" stroke-linecap="round" stroke-linejoin="round" stroke-width="4"></path><path d="M235.47,209.26a7.85,7.85,0,1,1-15.69,0v-7.85a16.37,16.37,0,0,0,15.69,0Z" fill="#ffa694" stroke="#45413c" stroke-linecap="round" stroke-linejoin="round" stroke-width="4"></path><path d="M176.190 181.610 A15.820 15.820 0 1 0 207.830 181.610 A15.820 15.820 0 1 0 176.190 181.610 Z" fill="#45413c"></path><path d="M201,174.52c2.64,3,3.46,6.61,1.85,8s-3.17-1.43-5.8-4.45-5.34-5.09-3.73-6.49S198.33,171.49,201,174.52Z" fill="#fffacf"></path><path d="M183.33,190.7a3.77,3.77,0,0,1,.45-5.3c1.58-1.43,2.13.21,3.48,1.7s3,2.27,1.38,3.7A3.75,3.75,0,0,1,183.33,190.7Z" fill="#fffacf"></path><path d="M261.600 181.610 A15.820 15.820 0 1 0 293.240 181.610 A15.820 15.820 0 1 0 261.600 181.610 Z" fill="#45413c"></path><path d="M286.37,174.52c2.63,3,3.46,6.61,1.85,8s-3.17-1.43-5.8-4.45-5.34-5.09-3.73-6.49S283.74,171.49,286.37,174.52Z" fill="#fffacf"></path><path d="M268.74,190.7a3.78,3.78,0,0,1,.44-5.3c1.59-1.43,2.14.21,3.48,1.7s3,2.27,1.39,3.7A3.75,3.75,0,0,1,268.74,190.7Z" fill="#fffacf"></path><path d="M146.54,255.84a98.58,98.58,0,0,0,17.55,10.07" fill="none" stroke="#45413c" stroke-linecap="round" stroke-linejoin="round" stroke-width="4"></path><path d="M217.57,273.46a98.43,98.43,0,0,0,20.21-5" fill="none" stroke="#45413c" stroke-linecap="round" stroke-linejoin="round" stroke-width="4"></path><path d="M281.22 89.57L270.9 63.18" fill="none" stroke="#ffda8f" stroke-linecap="round" stroke-miterlimit="10" stroke-width="4"></path><path d="M122.19 84.36L107.94 68.67" fill="none" stroke="#ffda8f" stroke-linecap="round" stroke-miterlimit="10" stroke-width="4"></path><path d="M81.37 126.79L51.87 97.88" fill="none" stroke="#ffda8f" stroke-linecap="round" stroke-miterlimit="10" stroke-width="4"></path><path d="M90.45 185.89L79.15 176.96" fill="none" stroke="#ffda8f" stroke-linecap="round" stroke-miterlimit="10" stroke-width="4"></path><path d="M91.45 231.6L47.86 197.18" fill="none" stroke="#ffda8f" stroke-linecap="round" stroke-miterlimit="10" stroke-width="4"></path><path d="M13.43,143.87c13.13-.13,23.91,13,24.07,29.41C37.34,156.91,47.85,143.53,61,143.4c-13.13.13-23.9-13-24.07-29.41C37.08,130.36,26.56,143.74,13.43,143.87Z" fill="#ffe500" stroke="#ebcb00" stroke-linecap="round" stroke-linejoin="round" stroke-width="4"></path><path d="M146.26,53.83c8.14-.08,14.81,8.09,14.91,18.23-.1-10.14,6.42-18.43,14.55-18.51-8.13.08-14.81-8.08-14.91-18.23C160.91,45.47,154.4,53.75,146.26,53.83Z" fill="#ffe500" stroke="#ebcb00" stroke-linecap="round" stroke-linejoin="round" stroke-width="4"></path><path d="M321.32,207.52c8.14-.08,14.82,8.09,14.92,18.23-.1-10.14,6.41-18.44,14.54-18.52-8.13.08-14.81-8.08-14.91-18.22C336,199.15,329.46,207.44,321.32,207.52Z" fill="#ffe500" stroke="#ebcb00" stroke-linecap="round" stroke-linejoin="round" stroke-width="4"></path></g></svg>