<svg width="38px" height="38px" viewBox="0 0 38 38" version="1.1" xmlns="http://www.w3.org/2000/svg" xmlns:xlink="http://www.w3.org/1999/xlink">
    <g id="*-Design-System-*" stroke="none" stroke-width="1" fill="none" fill-rule="evenodd">
        <g id="form/Progress-with-number-checked" transform="translate(-15.000000, -15.000000)">
            <g id="icons/check-icon" transform="translate(16.000000, 16.000000)">
                <g id="check-icon">
                    <circle id="Oval" fill="#6BBD1F" cx="18" cy="18" r="19"></circle>
                    <path d="M16.378996,25.839098 L8.2228454,18.4282987 C7.95471532,18.1866858 7.92430502,17.7661402 8.15468815,17.4857487 L9.42695677,15.9776687 C9.67900576,15.7201622 10.0836711,15.7201622 10.3357201,15.9776687 L16.1177265,21.2206031 C16.2429431,21.3391988 16.4092587,21.3999116 16.5784897,21.3888025 C16.7477208,21.3776935 16.9053292,21.295717 17.0151303,21.1616937 L26.5230663,10.1574225 C26.6190925,10.0566884 26.7499922,10 26.8865716,10 C27.0231511,10 27.1540507,10.0566884 27.2500769,10.1574225 L28.783615,11.5830294 C29.0483074,11.8280211 29.0736339,12.248311 28.8404127,12.5255794 L17.2877593,25.7801886 C17.0487544,26.0486911 16.6483748,26.0746452 16.378996,25.839098 Z" id="Path" fill="#FFFFFF"></path>
                </g>
            </g>
        </g>
    </g>
</svg>