<svg viewBox="0 0 100 100" height="100" width="100" xmlns="http://www.w3.org/2000/svg">,,,,,,,,,,,,,,,,,,,,,,,,,,,,,,,,,,,,,,,,,,,<g transform="matrix(0.2702702702702703,0,0,0.2702702702702703,0,0)"><path d="M347.35,135.32A173.48,173.48,0,0,0,302.21,45C268.63,171.13,140.83,248.72,12.79,219.29a173.74,173.74,0,0,0,63.93,85.94C196.42,324.2,312.35,251.57,347.35,135.32Z" fill="#f7e5c6"></path><path d="M320.77,110.41C318,94.52,303.48,83.84,291.06,77.46A243.36,243.36,0,0,1,51.41,225c1.92,54.88,26.86,22.61,25.68,34.26-1.06,4.66-8.3,5.78-4.85,18.66,13.54,24.26,89,15.83,142.42-9C262.46,246.7,336.63,177.25,320.77,110.41Z" fill="#f0d5a8"></path><path d="M76.72,305.23c119.7,19,235.63-53.66,270.63-169.91" fill="none" stroke="#45413c" stroke-linecap="round" stroke-linejoin="round" stroke-width="4"></path><path d="M302.21,45C268.57,171.37,140.34,249,12.06,219.12" fill="none" stroke="#45413c" stroke-linecap="round" stroke-linejoin="round" stroke-width="4"></path><path d="M267.1,222.14c-14.43,13-33.63,13-44.78,11.47-42.8,50-126.51,48.44-130.81,48.47s-6.18-3.42-5.85-5.75A5.71,5.71,0,0,1,90,271.57a199.07,199.07,0,0,0,20.07-6,4.73,4.73,0,0,0,1.22-8.22c-7.24-5.42-11.88-11.65-13.71-18.78a4.72,4.72,0,0,0-6.84-3l-21,11.49a5.65,5.65,0,0,1-7.37-8.16l16.19-23.39a24.07,24.07,0,0,1,19-7.52L116,209.13a50,50,0,0,0,22.17-16.45c-53.26-25.15-20.88-84.6-17.59-89.67,4.59-7.09,11.06-12.53,19.08-13.39.6-.07,1.18-.12,1.76-.17l1.67-.11c.51,0,1,0,1.49,0a86.35,86.35,0,0,0-8.8,33.67c-.07.15-.16.3-.23.45-6.2,11.3-8.46,24.4-1.47,35.75a31.82,31.82,0,0,0,13.29,12.05h0a86.72,86.72,0,0,0,135.52,18.59C281,203.61,275.68,214.44,267.1,222.14Z" fill="#ffffff"></path><path d="M135.630 127.640 A86.780 86.780 0 1 0 309.190 127.640 A86.780 86.780 0 1 0 135.630 127.640 Z" fill="#ffffff"></path><path d="M299.25,87.37a86.76,86.76,0,0,1-162.66,53.14A86.77,86.77,0,1,0,299.25,87.37Z" fill="#f0f0f0"></path><path d="M194.53 107.41H230.61V115.99H194.53z" fill="#656769" stroke="#45413c" stroke-linecap="round" stroke-linejoin="round" stroke-width="4" transform="translate(24.41 -37.49) rotate(10.69)"></path><path d="M203.87,112.06a24.9,24.9,0,0,1-49.32-3.23l-.3-5.37a11.4,11.4,0,0,1,13.5-11.84l29,5.47a9.76,9.76,0,0,1,7.79,11.42Z" fill="#525252"></path><path d="M196.74,97.09,180.13,94l-25.32,17.28a24.77,24.77,0,0,0,5.41,12l37.85-25.82A8.41,8.41,0,0,0,196.74,97.09Z" fill="#656769"></path><path d="M203.87,112.06a24.9,24.9,0,0,1-49.32-3.23l-.3-5.37a11.4,11.4,0,0,1,13.5-11.84l29,5.47a9.76,9.76,0,0,1,7.79,11.42Z" fill="none" stroke="#45413c" stroke-linecap="round" stroke-linejoin="round" stroke-width="4"></path><path d="M273.43,118.82l35,20.12a53.39,53.39,0,0,1-1.29,8.1c-3.26-2-36.64-20.42-36.64-20.42Z" fill="#656769" stroke="#45413c" stroke-linecap="round" stroke-linejoin="round" stroke-width="4"></path><path d="M276.47,125.76a24.89,24.89,0,0,1-49.32-3.23l-.3-5.36a11.42,11.42,0,0,1,13.51-11.85l29,5.47a9.79,9.79,0,0,1,7.8,11.43Z" fill="#525252"></path><path d="M269.34,110.79l-16.6-3.13-25.32,17.28a24.77,24.77,0,0,0,5.41,12l37.84-25.83A11.29,11.29,0,0,0,269.34,110.79Z" fill="#656769"></path><path d="M276.47,125.76a24.89,24.89,0,0,1-49.32-3.23l-.3-5.36a11.42,11.42,0,0,1,13.51-11.85l29,5.47a9.79,9.79,0,0,1,7.8,11.43Z" fill="none" stroke="#45413c" stroke-linecap="round" stroke-linejoin="round" stroke-width="4"></path><path d="M160.59,106.8c-4,8.54-21.87,11.25-21.94,11.36q-1.6,2.46-2.88,4.81a86.35,86.35,0,0,1,8.8-33.67C162.13,89,164.22,98.94,160.59,106.8Z" fill="#ffffff"></path><path d="M144.89,89.32c16.89-33.86,54.6-54.31,93.62-46.95a86.79,86.79,0,0,1,44.42,147.47" fill="none" stroke="#45413c" stroke-linecap="round" stroke-linejoin="round" stroke-width="4"></path><path d="M219.48,214.38c-26.07,24.38-54.25,45.95-106.5,45.42a4.73,4.73,0,0,1-2.91,5.77,199.07,199.07,0,0,1-20.07,6,5.71,5.71,0,0,0-4.34,4.76c-.33,2.33,1.55,5.79,5.85,5.75s88,1.56,130.81-48.47c11.15,1.48,30.35,1.53,44.78-11.47,8.58-7.7,13.85-18.53,15.82-32.32A86.74,86.74,0,0,1,219.48,214.38Z" fill="#f0f0f0"></path><path d="M147.37,171.22c-2.52-.76-32-17.11-8.72-53.06.07-.1,18-2.82,21.93-11.36s1.15-19.59-20.94-17.19c-8,.87-14.48,6.31-19.07,13.4-3.29,5.07-35.67,64.53,17.59,89.67A50,50,0,0,1,116,209.14L97.55,208a24,24,0,0,0-19,7.52L62.41,238.93a5.65,5.65,0,0,0,7.35,8.17l21-11.5a4.72,4.72,0,0,1,6.84,3c1.83,7.12,6.47,13.36,13.7,18.78a4.73,4.73,0,0,1-1.21,8.22,196.5,196.5,0,0,1-20.07,6,5.68,5.68,0,0,0-4.34,4.75c-.32,2.33,1.55,5.8,5.85,5.76s88,1.55,130.8-48.47c11.16,1.48,30.35,1.53,44.8-11.46,8.57-7.72,13.84-18.54,15.81-32.33" fill="none" stroke="#45413c" stroke-linecap="round" stroke-linejoin="round" stroke-width="4"></path><path d="M168.71,195.83a86.84,86.84,0,0,1-33-72.81" fill="none" stroke="#45413c" stroke-linecap="round" stroke-linejoin="round" stroke-width="4"></path><path d="M282.93,189.84a86.7,86.7,0,0,1-66.18,24.4" fill="none" stroke="#45413c" stroke-linecap="round" stroke-linejoin="round" stroke-width="4"></path><path d="M195.54,158a6.95,6.95,0,1,0,13.7,2.31l1.16-6.85a12.81,12.81,0,0,1-13.71-2.31Z" fill="#ffb0ca" stroke="#45413c" stroke-linecap="round" stroke-linejoin="round" stroke-width="4"></path><path d="M173.310 153.930 A4.34 10.84 0 1 0 181.990 153.930 A4.34 10.84 0 1 0 173.310 153.930 Z" fill="#ffb0ca" transform="translate(-6.57 299.94) rotate(-79.31)"></path><path d="M223.310 163.370 A4.34 10.84 0 1 0 231.990 163.370 A4.34 10.84 0 1 0 223.310 163.370 Z" fill="#ffb0ca" transform="translate(24.88 356.76) rotate(-79.31)"></path><path d="M223.36,143.63c-3.16-.9-7.06,5.6-7.06,5.6a11.81,11.81,0,0,1,7.37.91" fill="none" stroke="#45413c" stroke-linecap="round" stroke-linejoin="round" stroke-width="4"></path><path d="M110.07,265.57l-1.94.68,13.16,13.95A228.15,228.15,0,0,0,155,273.46c-23.13-14.74-35.63-50.48-39.74-64.37L97.55,208a24,24,0,0,0-12.63,2.71l6,24.8a4.7,4.7,0,0,1,6.67,3c1.83,7.12,6.47,13.36,13.7,18.78a4.73,4.73,0,0,1-1.21,8.22Z" fill="#4acfff" stroke="#45413c" stroke-linecap="round" stroke-linejoin="round" stroke-width="4"></path><path d="M113.49,241c4.38-4.39,12.79-3.36,12.79-3.36s-5.21,4.79-4,9" fill="none" stroke="#45413c" stroke-linecap="round" stroke-linejoin="round" stroke-width="4"></path><path d="M189.270 142.180 A3.330 3.330 0 1 0 195.930 142.180 A3.330 3.330 0 1 0 189.270 142.180 Z" fill="#45413c"></path><path d="M322.4,219.41a13.84,13.84,0,0,0-13.84,13.84H322.4c0,.67,0,1.33-.1,2a26.67,26.67,0,0,1-3.47,11.37,13.55,13.55,0,0,0,3.57.48,13.84,13.84,0,1,0,0-27.68Z" fill="#ffaa54" stroke="#eb6d00" stroke-linecap="round" stroke-linejoin="round" stroke-width="4"></path><path d="M322.4 233.25L322.4 219.41" fill="none" stroke="#eb6d00" stroke-linecap="round" stroke-linejoin="round" stroke-width="4"></path><path d="M322.4 233.25L332.19 223.46" fill="none" stroke="#eb6d00" stroke-linecap="round" stroke-linejoin="round" stroke-width="4"></path><path d="M322.4 233.25L336.24 233.25" fill="none" stroke="#eb6d00" stroke-linecap="round" stroke-linejoin="round" stroke-width="4"></path><path d="M322.4 233.25L332.19 243.04" fill="none" stroke="#eb6d00" stroke-linecap="round" stroke-linejoin="round" stroke-width="4"></path><path d="M322.4 233.25L312.61 223.46" fill="none" stroke="#eb6d00" stroke-linecap="round" stroke-linejoin="round" stroke-width="4"></path><path d="M230.650 288.290 L354.800 288.290 L354.800 308.190 L230.650 308.190 Z" fill="#debb7e"></path><path d="M301.06,288.29c-3.92-3.92-2.46-30.77-2.46-30.77h-6.06s1.54,26.77-2.47,30.77Z" fill="#e5f8ff" stroke="#45413c" stroke-linecap="round" stroke-linejoin="round" stroke-width="4"></path><path d="M322.4,233.25a27,27,0,1,1-53.91,0Z" fill="#e5f8ff"></path><path d="M272.45,247.26a26.92,26.92,0,0,0,49.34-8.35C302.31,258.14,288.24,234.32,272.45,247.26Z" fill="#ff87af"></path><path d="M348.48,298.24H237a6.32,6.32,0,0,1-6.17-5,5.94,5.94,0,0,0-.15,1.35v7.25a6.32,6.32,0,0,0,6.32,6.32H348.48a6.32,6.32,0,0,0,6.32-6.32v-7.25a6.57,6.57,0,0,0-.15-1.35A6.32,6.32,0,0,1,348.48,298.24Z" fill="#b89558"></path><path d="M230.650 288.290 L354.800 288.290 L354.800 308.190 L230.650 308.190 Z" fill="none" stroke="#45413c" stroke-linecap="round" stroke-linejoin="round" stroke-width="4"></path><path d="M245.83 331.27L253.13 308.19 241.73 308.19 234.42 331.27" fill="#debb7e" stroke="#45413c" stroke-linecap="round" stroke-linejoin="round" stroke-width="4"></path><path d="M351.02 331.27L343.72 308.19 332.31 308.19 339.58 331.15" fill="#debb7e" stroke="#45413c" stroke-linecap="round" stroke-linejoin="round" stroke-width="4"></path><path d="M322.4,233.25a27,27,0,1,1-53.91,0Z" fill="none" stroke="#45413c" stroke-linecap="round" stroke-linejoin="round" stroke-width="4"></path><path d="M253.59,115.88c12.28-.12,22.36,12.2,22.51,27.51-.15-15.31,9.68-27.83,22-27.95-12.28.12-22.35-12.19-22.5-27.51C275.71,103.25,265.87,115.76,253.59,115.88Z" fill="#ffffff" stroke="#45413c" stroke-linecap="round" stroke-linejoin="round" stroke-width="4"></path></g></svg>