<svg xmlns="http://www.w3.org/2000/svg" version="1.1" xmlns:xlink="http://www.w3.org/1999/xlink" xmlns:svgjs="http://svgjs.com/svgjs" viewBox="0 0 100 100" width="100" height="100"><g transform="matrix(0.2702702702702703,0,0,0.2702702702702703,0,0)"><path d="M120.27,244.65a.29.29,0,0,1-.24.2c-.09,0-.17-.08-.24-.22L29.37,43.82A7.07,7.07,0,0,1,29,39.68c.3-1.39,1-2.3,1.72-2.3,3.87,0,7.52,0,11.16.13.56,0,1.2,1.56,1.62,2.69C49.65,56.45,55.71,72.79,61.82,89c5.58,14.82,11.24,29.52,16.81,44.34q20.73,55.1,41.4,110.25A9.54,9.54,0,0,1,120.27,244.65Z" fill="#ffe500"></path><path d="M304.8,37.4c.72,0,1.38.82,1.7,2.13a7.35,7.35,0,0,1-.19,4L224.08,264.39c-.15.41-.43.51-.65.24,1.12-3.67,2.2-7.38,3.35-11Q242.4,204.19,258,154.78c6.11-19.4,12.14-38.91,18.21-58.36q8.73-28,17.47-56c.7-2.25,1.56-3.23,2.95-3.14C299.31,37.46,302,37.44,304.8,37.4Z" fill="#ffe500"></path><path d="M350.16,87.8c.55-1,1.34-1.29,2-.67a5,5,0,0,1,1.13,3.5c0,4.68,0,9-.06,13.37a8.28,8.28,0,0,1-1,3.65q-24.18,38.63-48.41,77.09-17.5,27.81-35,55.56c-.3.48-.62.9-.93,1.33s-.57.21-.74-.25C294.71,190.43,322.23,139.48,350.16,87.8Z" fill="#ffe500"></path><path d="M9.59,71.91a4.94,4.94,0,0,1,1.14-3.53c.7-.61,1.5-.31,2,.75l105,204.26a1.88,1.88,0,0,1,0,1.4q-3.36-6-6.71-12C102.4,247.13,93.73,231.43,85,215.83c-13.84-24.77-27.73-49.45-41.57-74.24C35.28,127,27.17,112.22,19,97.57c-2.67-4.79-5.45-9.33-8-14.26A14.62,14.62,0,0,1,9.7,77.77C9.61,75.86,9.59,73.93,9.59,71.91Z" fill="#ffe500"></path><path d="M339,37.48c.75,0,1.42.93,1.72,2.34a7.09,7.09,0,0,1-.38,4.15l-96.9,207.12c-.17.37-.46.4-.65.06,2-4.74,4-9.5,6.06-14.21,9.29-21.55,18.61-43,27.87-64.65,10.63-24.78,21.18-49.7,31.8-74.48,8.11-18.93,16.3-37.7,24.41-56.64,1.14-2.67,2.29-4.21,4.12-3.87A13.85,13.85,0,0,0,339,37.48Z" fill="#ffe500"></path><path d="M11,274.23c-.78-.5-1.32-2-1.32-3.67v-9.4a5.73,5.73,0,0,1,.84-3.2c.52-.71,1.19-.84,1.77-.35q39,33.13,77.81,66a1.76,1.76,0,0,1,.32,1.47Z" fill="#ffe500"></path><path d="M9.67,208.83a5.44,5.44,0,0,1,.93-3.34,1.12,1.12,0,0,1,1.88,0l70.46,81.72a1.39,1.39,0,0,1,.16,1.11c-5.34-5.14-10.69-10.26-16-15.42l-35.4-34.25C24.85,232,18,225.35,11.2,218.8c-1.1-1.05-1.68-2.32-1.59-5C9.66,212.19,9.67,210.56,9.67,208.83Z" fill="#ffe500"></path><path d="M362.9,208.83a5.51,5.51,0,0,0-.93-3.34,1.13,1.13,0,0,0-1.89,0l-70.45,81.72a1.35,1.35,0,0,0-.17,1.11c5.35-5.14,10.69-10.26,16-15.42q17.72-17.11,35.4-34.25c6.83-6.61,13.64-13.28,20.48-19.83,1.1-1.05,1.68-2.32,1.59-5C362.9,212.19,362.89,210.56,362.9,208.83Z" fill="#ffe500"></path><path d="M219.55,37.49c.58,0,1.13.55,1.49,1.48a7.34,7.34,0,0,1,.34,3.31C215,93.63,208.75,144.5,202.47,195.37c-.07.54-.33.89-.6.8L203,183q1.49-17,3-34c1-10.79,2-21.56,2.94-32.34,1.2-13.61,2.34-27.25,3.57-40.85.95-10.53,2-21,3-31.54.21-2.13.34-4.29.53-6.43,0-.17.21-.38.32-.38Z" fill="#ffe500"></path><path d="M230.27,196.52a1.77,1.77,0,0,1-.28-1.43c.26-1.38.51-2.77.82-4.09q11.25-46.69,22.5-93.37,7-29,14-58.08c.22-.93.83-2,1.3-2.06a8.84,8.84,0,0,1,1.36-.15c.67,0,1.3.69,1.64,1.86a7.46,7.46,0,0,1,0,3.84Z" fill="#ffe500"></path><path d="M67.79,43a6.88,6.88,0,0,1-.14-3.69c.3-1.19.9-1.93,1.55-1.93,4.52,0,4.49,0,6.74,8.08q10.5,37.51,21,75a3,3,0,0,1-.28,2.36c-.39.51-.91.31-1.17-.46C86.33,96.08,77.13,69.74,67.79,43Z" fill="#ffe500"></path><path d="M180,46.08a6.82,6.82,0,0,1,1-3.56c.65-1,1.45-1.57,2.07-1.37,4.31,1.35,4.26,1.37,3.94,9.72q-1.52,38.88-3,77.73a3,3,0,0,1-1,2.17c-.52.36-.95,0-1-.79C181.35,102.21,180.66,74.36,180,46.08Z" fill="#ffe500"></path><path d="M351.11,178.63a7.1,7.1,0,0,1,3.12-2.06c1.18-.37,2.13-.26,2.48.28,2.38,3.79,2.33,3.78-3.42,9.92q-26.78,28.56-53.5,57.14a3.1,3.1,0,0,1-2.19,1c-.64-.06-.74-.6-.22-1.22Z" fill="#ffe500"></path><path d="M148.2,42.11a7.17,7.17,0,0,1,.39-3.19c.36-.89.89-1.41,1.46-1.41h.21c.93,0,1.72,1.39,1.86,3.26q6.23,82.56,12.42,165c0,.48-.12.94-.36,1C158.86,152,153.55,97.24,148.2,42.11Z" fill="#ffe500"></path><path d="M97.06,39.28a2.56,2.56,0,0,1,0-1.26c.11-.38.31-.62.53-.63,3.57-.2,3.5-.14,4.95,6.75,3.87,18.52,7.83,37,11.72,55.49q7.5,35.79,15,71.62a.82.82,0,0,1-.14.72c-.13.13-.29,0-.36-.26Q112.93,105.62,97.06,39.28Z" fill="#ffe500"></path><path d="M301.73,313.28a1.26,1.26,0,0,1,.27-1L350.67,276c.57-.42,1.22-.25,1.72.47a5.76,5.76,0,0,1,.8,3.14v2.3c0,1.73-.57,3.25-1.39,3.7Z" fill="#ffe500"></path><path d="M286.57,232.23a1.69,1.69,0,0,1-.11-.76,1.34,1.34,0,0,1,.19-.69q32.82-50.13,65.65-100.24a.69.69,0,0,1,1.29,0c-.49,1.79-.78,4.16-1.52,5.26-12.58,18.76-25.22,37.35-37.85,56q-12.92,19.06-25.82,38.13C287.82,230.76,287.18,231.46,286.57,232.23Z" fill="#ffe500"></path><path d="M216.08,142.3a.59.59,0,0,1-.32-.42,1.68,1.68,0,0,1-.06-.78c.6-4.48,1.19-9,1.8-13.45Q221.24,100.32,225,73c1.43-10.43,2.79-20.89,4.29-31.28.13-.84.17-2,.37-3,.16-.72.57-1.06.93-.78A2.15,2.15,0,0,1,231,39.8Q223.54,91.1,216.08,142.3Z" fill="#ffe500"></path><path d="M150.31,140.41c-.19.05-.37-.19-.42-.58L137.31,39.41a3.65,3.65,0,0,1,.41-2.33,8.57,8.57,0,0,1,1.13,2.57c1.48,12.68,2.84,25.43,4.31,38.11,1.44,12.4,3,24.75,4.46,37.12.89,7.45,1.81,14.88,2.67,22.34A28.2,28.2,0,0,1,150.31,140.41Z" fill="#ffe500"></path><path d="M280.53,194.57a1,1,0,0,1,0,.74l-10.64,21.75c-.05.11-.12.17-.19.17s-.15-.07-.2-.17c2.11-4.58,4.19-9.25,6.35-13.72C277.34,200.28,279,197.49,280.53,194.57Z" fill="#ffe500"></path><path d="M168.07,160.91h0l.62,12.49a2.47,2.47,0,0,1-.16,1c-.11.28-.28.45-.46.47v-14Z" fill="#ffe500"></path><path d="M59.27,220.53a1.69,1.69,0,0,0,.11-1.4L18.62,156.81c-.49-.74-1.28-.75-2.14,0a8.22,8.22,0,0,0-2.18,3.63l-.91,2.85c-.7,2.16-.66,4.25.09,5.1Z" fill="#ffe500"></path><path d="M171.82,183.47s50.37-10.86,65.19-4.54,17.49,2.51,29.65,12.4,25.85,26.22,43.71,21.28,13.51,14.35-2.08,21.57-24-5.73-41.18,1.49S247,267.25,236.45,263c-16.74-6.7-2.1-28.38-35.16-44Z" fill="#ff6242"></path><path d="M274.4,274.42H87.8a7.9,7.9,0,0,0-7.9,7.89v53.84H282.29V282.31A7.89,7.89,0,0,0,274.4,274.42Z" fill="#00b8f0"></path><path d="M79.9 288.5H122.46000000000001V336.14H79.9z" fill="#009fd9"></path><path d="M274.2,274.42H88a8.09,8.09,0,0,0-8.1,8.09v6H282.29v-6A8.09,8.09,0,0,0,274.2,274.42Z" fill="#f0f0f0"></path><path d="M282.29,336.15V282.31a7.89,7.89,0,0,0-7.89-7.89H87.8a7.9,7.9,0,0,0-7.9,7.89v53.84" fill="none" stroke="#45413c" stroke-linecap="round" stroke-linejoin="round" stroke-width="4"></path><path d="M130.53 296.57L186.88 296.57" fill="none" stroke="#b8ecff" stroke-linecap="round" stroke-linejoin="round" stroke-width="4"></path><path d="M201.79 296.57L219.33 296.57" fill="none" stroke="#b8ecff" stroke-linecap="round" stroke-linejoin="round" stroke-width="4"></path><path d="M229.96 296.57L270.5 296.57" fill="none" stroke="#b8ecff" stroke-linecap="round" stroke-linejoin="round" stroke-width="4"></path><path d="M158.29 308.96L214.63 308.96" fill="none" stroke="#b8ecff" stroke-linecap="round" stroke-linejoin="round" stroke-width="4"></path><path d="M137.85 308.96L148.41 308.96" fill="none" stroke="#b8ecff" stroke-linecap="round" stroke-linejoin="round" stroke-width="4"></path><path d="M229.96 308.96L270.5 308.96" fill="none" stroke="#b8ecff" stroke-linecap="round" stroke-linejoin="round" stroke-width="4"></path><path d="M144.17 320.77L186.88 320.77" fill="none" stroke="#b8ecff" stroke-linecap="round" stroke-linejoin="round" stroke-width="4"></path><path d="M201.79 320.77L219.33 320.77" fill="none" stroke="#b8ecff" stroke-linecap="round" stroke-linejoin="round" stroke-width="4"></path><path d="M229.96 320.77L270.5 320.77" fill="none" stroke="#b8ecff" stroke-linecap="round" stroke-linejoin="round" stroke-width="4"></path><path d="M86.500 282.420 A2.980 2.980 0 1 0 92.460 282.420 A2.980 2.980 0 1 0 86.500 282.420 Z" fill="#ff6242"></path><path d="M96.150 282.420 A2.980 2.980 0 1 0 102.110 282.420 A2.980 2.980 0 1 0 96.150 282.420 Z" fill="#ffe500"></path><path d="M105.790 282.420 A2.980 2.980 0 1 0 111.750 282.420 A2.980 2.980 0 1 0 105.790 282.420 Z" fill="#6dd627"></path><path d="M180.68,201.57c19.62,5.36,60.51-8.75,77.42,1.52s36.81,28.36,58.3,19.12a27,27,0,0,1,5.05-1.65c1.9-6-1.17-10.69-11.08-7.95-17.86,4.94-31.54-11.4-43.71-21.28s-14.82-6.08-29.65-12.4-65.19,4.54-65.19,4.54l-5.48,25.2C180.78,205.23,172.9,199.45,180.68,201.57Z" fill="#ff866e"></path><path d="M171.82,183.47s50.37-10.86,65.19-4.54,17.49,2.51,29.65,12.4,25.85,26.22,43.71,21.28,13.51,14.35-2.08,21.57-24-5.73-41.18,1.49S247,267.25,236.45,263c-16.74-6.7-2.1-28.38-35.16-44Z" fill="none" stroke="#45413c" stroke-linecap="round" stroke-linejoin="round" stroke-width="4"></path><path d="M242.74,182.5c-.39,5.3.06,10.57,11.52,15.41,27.22,3.32,13.55-34.19-3.2-20.87l-.3-.39a5,5,0,1,0-8,5.85Z" fill="#ffffff" stroke="#45413c" stroke-linecap="round" stroke-linejoin="round" stroke-width="4"></path><path d="M251.06,177s5.14,7.7,3.06,9.05-4.68,1-5.94-1" fill="none" stroke="#45413c" stroke-linecap="round" stroke-linejoin="round" stroke-width="4"></path><path d="M118.63,182.5c.38,5.3-.07,10.57-11.53,15.41-27.21,3.32-13.54-34.19,3.21-20.87l.3-.39a5,5,0,1,1,8,5.85Z" fill="#ffffff" stroke="#45413c" stroke-linecap="round" stroke-linejoin="round" stroke-width="4"></path><path d="M110.3,177s-5.13,7.7-3,9.05,4.67,1,5.94-1" fill="none" stroke="#45413c" stroke-linecap="round" stroke-linejoin="round" stroke-width="4"></path><path d="M254.26,197.91c-11.46-4.84-11.91-10.11-11.52-15.41-.06.07-11.82,11.45-28.72-5.3L212.35,182H149l-1.66-4.79c-16.91,16.75-28.66,5.37-28.72,5.3.38,5.3-.07,10.57-11.53,15.41,11.32,5.2,21.76,7.05,36.78-2.84V269a5,5,0,0,0,9.88,1.45l3-10.8a3.68,3.68,0,0,1,3.52-2.63,75.22,75.22,0,0,0,40.86,0,3.69,3.69,0,0,1,3.53,2.63l3,10.8a5,5,0,0,0,9.88-1.45v-73.9C232.5,205,243,203.11,254.26,197.91Z" fill="#00b8f0"></path><path d="M180.68,200.81c15.32,0,29.31-6.88,40-18.2A39.52,39.52,0,0,1,214,177.2L212.35,182H149l-1.66-4.79a39.92,39.92,0,0,1-6.67,5.41c10.69,11.32,24.68,18.2,40,18.2Z" fill="#009fd9"></path><path d="M254.26,197.91c-11.46-4.84-11.91-10.11-11.52-15.41-.06.07-11.82,11.45-28.72-5.3L212.35,182H149l-1.66-4.79c-16.91,16.75-28.66,5.37-28.72,5.3.38,5.3-.07,10.57-11.53,15.41,11.32,5.2,21.76,7.05,36.78-2.84V269a5,5,0,0,0,9.88,1.45l3-10.8a3.68,3.68,0,0,1,3.52-2.63,75.22,75.22,0,0,0,40.86,0,3.69,3.69,0,0,1,3.53,2.63l3,10.8a5,5,0,0,0,9.88-1.45v-73.9C232.5,205,243,203.11,254.26,197.91Z" fill="none" stroke="#45413c" stroke-linecap="round" stroke-linejoin="round" stroke-width="4"></path><path d="M180.71,238l-36.83-1.47S159.93,248,160.25,257a75.6,75.6,0,0,0,40.91,0c.33-9,16.38-20.49,16.38-20.49Z" fill="#4acfff" stroke="#45413c" stroke-linecap="round" stroke-linejoin="round" stroke-width="4"></path><path d="M217.49,227.24l-29.84,5.87a17.59,17.59,0,0,0-13.94,0l-29.83-5.87v9.26l25.61,5c1.61,2.9,6,5,11.19,5s9.58-2.1,11.19-5l25.62-5Z" fill="#ffe500" stroke="#45413c" stroke-linecap="round" stroke-linejoin="round" stroke-width="4"></path><path d="M143.88 195.07L143.88 190.41" fill="none" stroke="#45413c" stroke-linecap="round" stroke-linejoin="round" stroke-width="4"></path><path d="M217.49 195.07L217.49 190.41" fill="none" stroke="#45413c" stroke-linecap="round" stroke-linejoin="round" stroke-width="4"></path><path d="M165.69,223.53a5,5,0,0,1-3.54-1.46l-7.86-7.86a5,5,0,0,1,0-7.08l7.87-7.86a5,5,0,0,1,7.07,7.07l-4.33,4.33,4.33,4.33a5,5,0,0,1-3.54,8.53Z" fill="#ffffff"></path><path d="M165.69,199.81a3,3,0,0,1,2.12.88,3,3,0,0,1,0,4.24l-5.74,5.74,5.74,5.74a3,3,0,0,1,0,4.24,3,3,0,0,1-4.24,0l-7.86-7.86a3,3,0,0,1,0-4.24l7.86-7.86a3,3,0,0,1,2.12-.88m0-4a7,7,0,0,0-4.95,2.05l-7.86,7.86a7,7,0,0,0,0,9.9l7.86,7.86a7,7,0,0,0,9.9-9.9l-2.91-2.91,2.91-2.91a7,7,0,0,0-4.95-11.95Z" fill="#45413c"></path><path d="M195.92,223.53a5,5,0,0,1-3.53-8.53l4.33-4.33-4.33-4.33a5,5,0,0,1,3.53-8.53,5,5,0,0,1,3.54,1.46l7.86,7.87a5,5,0,0,1,0,7.07l-7.86,7.86A5,5,0,0,1,195.92,223.53Z" fill="#ffffff"></path><path d="M195.92,199.81a3,3,0,0,1,2.12.88l7.87,7.86a3,3,0,0,1,0,4.24L198,220.65a3,3,0,0,1-2.12.88,3,3,0,0,1-2.12-5.12l5.74-5.74-5.74-5.74a3,3,0,0,1,2.12-5.12m0-4A7,7,0,0,0,191,207.76l2.92,2.91L191,213.58a7,7,0,0,0,9.9,9.9l7.87-7.86a7,7,0,0,0,0-9.9l-7.87-7.86a7,7,0,0,0-5-2.05Z" fill="#45413c"></path><path d="M176.45,223.53a5,5,0,0,1-2.38-.6,5,5,0,0,1-2-6.78l8.52-15.72a5,5,0,0,1,4.4-2.62,5,5,0,0,1,4.39,7.38l-8.51,15.72A5,5,0,0,1,176.45,223.53Z" fill="#ffffff"></path><path d="M185,199.81a2.91,2.91,0,0,1,1.42.36,3,3,0,0,1,1.21,4.06L179.09,220a3,3,0,0,1-5.28-2.85l8.51-15.73a3,3,0,0,1,2.65-1.57m0-4h0a7,7,0,0,0-6.16,3.67L170.3,215.2a7,7,0,1,0,12.31,6.66l8.51-15.72A7,7,0,0,0,185,195.81Z" fill="#45413c"></path><path d="M165.69,223.53a5,5,0,0,1-3.54-1.46l-7.86-7.86a5,5,0,0,1,0-7.08l7.87-7.86a5,5,0,0,1,7.07,7.07l-4.33,4.33,4.33,4.33a5,5,0,0,1-3.54,8.53Z" fill="#ffffff"></path><path d="M165.69,199.81a3,3,0,0,1,2.12.88,3,3,0,0,1,0,4.24l-5.74,5.74,5.74,5.74a3,3,0,0,1,0,4.24,3,3,0,0,1-4.24,0l-7.86-7.86a3,3,0,0,1,0-4.24l7.86-7.86a3,3,0,0,1,2.12-.88m0-4a7,7,0,0,0-4.95,2.05l-7.86,7.86a7,7,0,0,0,0,9.9l7.86,7.86a7,7,0,0,0,9.9-9.9l-2.91-2.91,2.91-2.91a7,7,0,0,0-4.95-11.95Z" fill="#45413c"></path><path d="M195.92,223.53a5,5,0,0,1-3.53-8.53l4.33-4.33-4.33-4.33a5,5,0,0,1,3.53-8.53,5,5,0,0,1,3.54,1.46l7.86,7.87a5,5,0,0,1,0,7.07l-7.86,7.86A5,5,0,0,1,195.92,223.53Z" fill="#ffffff"></path><path d="M195.92,199.81a3,3,0,0,1,2.12.88l7.87,7.86a3,3,0,0,1,0,4.24L198,220.65a3,3,0,0,1-2.12.88,3,3,0,0,1-2.12-5.12l5.74-5.74-5.74-5.74a3,3,0,0,1,2.12-5.12m0-4A7,7,0,0,0,191,207.76l2.92,2.91L191,213.58a7,7,0,0,0,9.9,9.9l7.87-7.86a7,7,0,0,0,0-9.9l-7.87-7.86a7,7,0,0,0-5-2.05Z" fill="#45413c"></path><path d="M176.45,223.53a5,5,0,0,1-2.38-.6,5,5,0,0,1-2-6.78l8.52-15.72a5,5,0,0,1,4.4-2.62,5,5,0,0,1,4.39,7.38l-8.51,15.72A5,5,0,0,1,176.45,223.53Z" fill="#ffffff"></path><path d="M185,199.81a2.91,2.91,0,0,1,1.42.36,3,3,0,0,1,1.21,4.06L179.09,220a3,3,0,0,1-5.28-2.85l8.51-15.73a3,3,0,0,1,2.65-1.57m0-4h0a7,7,0,0,0-6.16,3.67L170.3,215.2a7,7,0,1,0,12.31,6.66l8.51-15.72A7,7,0,0,0,185,195.81Z" fill="#45413c"></path><path d="M180.68,191.84a73.61,73.61,0,1,0-73.61-73.61,73.61,73.61,0,0,0,73.61,73.61Z" fill="#ffffff"></path><path d="M180.68,165.55h0a73.6,73.6,0,0,1-72.41-60.46,73.52,73.52,0,0,0,72.41,86.75h0a73.57,73.57,0,0,0,72.42-86.75A73.62,73.62,0,0,1,180.68,165.55Z" fill="#f0f0f0"></path><path d="M180.68,191.84a73.61,73.61,0,1,0-73.61-73.61,73.61,73.61,0,0,0,73.61,73.61Z" fill="none" stroke="#45413c" stroke-linecap="round" stroke-linejoin="round" stroke-width="4"></path><path d="M163.080 79.740 A3.000 3.000 0 1 0 169.080 79.740 A3.000 3.000 0 1 0 163.080 79.740 Z" fill="#45413c"></path><path d="M161.6 66.76L170.76 71.57" fill="#ffccdd" stroke="#45413c" stroke-linecap="round" stroke-linejoin="round" stroke-width="4"></path><path d="M192.920 79.740 A3.000 3.000 0 1 0 198.920 79.740 A3.000 3.000 0 1 0 192.920 79.740 Z" fill="#45413c"></path><path d="M200.41 66.76L191.25 71.57" fill="#ffccdd" stroke="#45413c" stroke-linecap="round" stroke-linejoin="round" stroke-width="4"></path><path d="M186.92,93.31a6.24,6.24,0,0,1-12.47,0V87.07a13,13,0,0,0,12.47,0Z" fill="#ffccdd" stroke="#45413c" stroke-linecap="round" stroke-linejoin="round" stroke-width="4"></path><path d="M199.460 88.890 A8.84 3.54 0 1 0 217.140 88.890 A8.84 3.54 0 1 0 199.460 88.890 Z" fill="#ffb0ca"></path><path d="M144.220 88.890 A8.84 3.54 0 1 0 161.900 88.890 A8.84 3.54 0 1 0 144.220 88.890 Z" fill="#ffb0ca"></path></g></svg>