<svg xmlns="http://www.w3.org/2000/svg" version="1.1" xmlns:xlink="http://www.w3.org/1999/xlink" xmlns:svgjs="http://svgjs.com/svgjs" viewBox="0 0 100 100" width="100" height="100"><g transform="matrix(0.2702702702702703,0,0,0.2702702702702703,0,0)"><path d="M227.26,330.4a20.68,20.68,0,0,0-14.74-11.46v8a12.84,12.84,0,0,1,6.82,5.21" fill="#87898c"></path><path d="M227.26,330.4a20.68,20.68,0,0,0-14.74-11.46v8a12.84,12.84,0,0,1,6.82,5.21" fill="none" stroke="#45413c" stroke-linecap="round" stroke-linejoin="round" stroke-width="3"></path><path d="M232.22,307.33a3.9,3.9,0,0,1-2.53-6.86c16.29-13.94,10.26-36.27,10-37.21a3.9,3.9,0,0,1,7.5-2.13c.32,1.13,7.71,28-12.44,45.27A3.85,3.85,0,0,1,232.22,307.33Z" fill="#87898c" stroke="#45413c" stroke-linecap="round" stroke-linejoin="round" stroke-width="3"></path><path d="M232.66,313.9h-52a7.25,7.25,0,0,1-7.24-7.25v-1.42a7.25,7.25,0,0,1,7.24-7.25h52Z" fill="#f0c2a1" stroke="#45413c" stroke-linecap="round" stroke-linejoin="round" stroke-width="3"></path><path d="M260.85,269.1H231.33a7.8,7.8,0,0,1-7.79-7.8v-12a7.79,7.79,0,0,1,7.79-7.79h29.52Z" fill="#f0c2a1" stroke="#45413c" stroke-linecap="round" stroke-linejoin="round" stroke-width="3"></path><path d="M255.760 241.470 L268.060 241.470 L268.060 269.100 L255.760 269.100 Z" fill="#bf8256" stroke="#45413c" stroke-linecap="round" stroke-linejoin="round" stroke-width="3"></path><path d="M218.750 297.980 L249.080 297.980 L249.080 313.900 L218.750 313.900 Z" fill="#bf8256" stroke="#45413c" stroke-linecap="round" stroke-linejoin="round" stroke-width="3"></path><path d="M188.4,256c-10.52,0-17.43-2.34-24.19-4.64-7.77-2.64-15.11-5.13-29.8-4.06a8.29,8.29,0,1,1-1.21-16.53c18-1.32,27.77,2,36.34,4.9,9.53,3.23,17.05,5.79,36.8,1.56a8.28,8.28,0,1,1,3.47,16.2A102.36,102.36,0,0,1,188.4,256Z" fill="#e0e0e0" stroke="#45413c" stroke-linecap="round" stroke-linejoin="round" stroke-width="3"></path><path d="M265.48,166.29a66.29,66.29,0,1,0-67.59,72.42c-3.42,11.58-5.1,27.68-7.67,43h-9.43a14.92,14.92,0,0,0-14.89,14.11L165,313l-4.47,1.12a8.4,8.4,0,0,0-6.25,9.88,8.28,8.28,0,0,0,10.1,6.24l8.21-2.06a11.54,11.54,0,0,0,8.76-10.63l.87-16.08a3.32,3.32,0,0,1,3.31-3.14H194l-.8,14.67-4.47,1.12a8.4,8.4,0,0,0-6.25,9.88,8.28,8.28,0,0,0,10.1,6.24l8.21-2.06a11.54,11.54,0,0,0,8.76-10.63l.87-16.08a3.32,3.32,0,0,1,3.31-3.14H231a9.9,9.9,0,0,0,9.81-8.51c3.82-27-1.26-53.38-3.46-62.93A66.27,66.27,0,0,0,265.48,166.29Z" fill="#ffffff"></path><path d="M193.34,106.43a66.29,66.29,0,0,0-60,71l105.83-8.86s14.21,21.87,2.16,55.25h0a66.3,66.3,0,0,0-48-117.39Z" fill="#e0e0e0"></path><path d="M173.52,185.86a31,31,0,0,0-38.22-30.11A66.41,66.41,0,0,0,149.53,216,31,31,0,0,0,173.52,185.86Z" fill="#525252"></path><path d="M265.48,166.29a66.29,66.29,0,1,0-67.59,72.42c-3.42,11.58-5.1,27.68-7.67,43h-9.43a14.92,14.92,0,0,0-14.89,14.11L165,313l-4.47,1.12a8.4,8.4,0,0,0-6.25,9.88,8.28,8.28,0,0,0,10.1,6.24l8.21-2.06a11.54,11.54,0,0,0,8.76-10.63l.87-16.08a3.32,3.32,0,0,1,3.31-3.14H194l-.8,14.67-4.47,1.12a8.4,8.4,0,0,0-6.25,9.88,8.28,8.28,0,0,0,10.1,6.24l8.21-2.06a11.54,11.54,0,0,0,8.76-10.63l.87-16.08a3.32,3.32,0,0,1,3.31-3.14H231a9.9,9.9,0,0,0,9.81-8.51c3.82-27-1.26-53.38-3.46-62.93A66.27,66.27,0,0,0,265.48,166.29Z" fill="none" stroke="#45413c" stroke-linecap="round" stroke-linejoin="round" stroke-width="3"></path><path d="M194,298.29l.13-2.46A14.92,14.92,0,0,1,209,281.72" fill="#ffffff" stroke="#45413c" stroke-linecap="round" stroke-linejoin="round" stroke-width="3"></path><path d="M237.36,226.85a67.93,67.93,0,0,1-6.22,3.85" fill="none" stroke="#45413c" stroke-linecap="round" stroke-linejoin="round" stroke-width="3"></path><path d="M186.700 106.430 A6.630 6.630 0 1 0 199.960 106.430 A6.630 6.630 0 1 0 186.700 106.430 Z" fill="#ff512e" stroke="#45413c" stroke-linecap="round" stroke-linejoin="round" stroke-width="3"></path><path d="M291.14,152.26a5,5,0,0,0-5.41-4.49L261.87,150a66.31,66.31,0,0,0-128.69,22l123.51-11.49h0l30-2.78A5,5,0,0,0,291.14,152.26Z" fill="#ff866e"></path><path d="M204.71,110.06a66.1,66.1,0,0,1,20.53,1.28,66.32,66.32,0,0,0-92.06,60.6l11.57-1.07A66.31,66.31,0,0,1,204.71,110.06Z" fill="#ffcabf"></path><path d="M167.78,160.4l23.93-2.22a3.31,3.31,0,0,1,3.6,3l.46,5-27.15,2.53Z" fill="#ff512e"></path><path d="M291.14,152.26a5,5,0,0,0-5.41-4.49L261.87,150a65.67,65.67,0,0,1,2.67,9.74l22.11-2.05A5,5,0,0,0,291.14,152.26Z" fill="#ff512e"></path><path d="M291.14,152.26a5,5,0,0,0-5.41-4.49L261.87,150a66.31,66.31,0,0,0-128.69,22l123.51-11.49h0l30-2.78A5,5,0,0,0,291.14,152.26Z" fill="none" stroke="#45413c" stroke-linecap="round" stroke-linejoin="round" stroke-width="3"></path><path d="M187.58,158.56l4.13-.38a3.31,3.31,0,0,1,3.6,3l.46,5" fill="none" stroke="#45413c" stroke-linecap="round" stroke-linejoin="round" stroke-width="3"></path><path d="M263.29,154.43c-.42-1.48-.88-2.93-1.39-4.36" fill="#ffffff" stroke="#45413c" stroke-linecap="round" stroke-linejoin="round" stroke-width="3"></path><path d="M167.78,160.4a9.94,9.94,0,0,1,19.8-1.84Z" fill="#e0e0e0" stroke="#45413c" stroke-linecap="round" stroke-linejoin="round" stroke-width="3"></path><path d="M174.43,196.12c.51,5.47,4.61,9.56,9.17,9.13s7.84-5.2,7.33-10.67Z" fill="#ffa694" stroke="#45413c" stroke-linecap="round" stroke-linejoin="round" stroke-width="3"></path><path d="M115.920 183.070 A28.170 28.170 0 1 0 172.260 183.070 A28.170 28.170 0 1 0 115.920 183.070 Z" fill="#fff0ed"></path><path d="M147.22,204.06a33.79,33.79,0,0,1-30.31-13.54,28.18,28.18,0,0,0,54.36,0A33.74,33.74,0,0,1,147.22,204.06Z" fill="#ffa694"></path><path d="M132.340 189.070 A3.310 3.310 0 1 0 138.960 189.070 A3.310 3.310 0 1 0 132.340 189.070 Z" fill="#45413c"></path><path d="M115.920 183.070 A28.170 28.170 0 1 0 172.260 183.070 A28.170 28.170 0 1 0 115.920 183.070 Z" fill="none" stroke="#45413c" stroke-linecap="round" stroke-linejoin="round" stroke-width="3"></path><path d="M250.55,174.94c1.09,18.57-11,34.38-26.91,35.31s-29.76-13.36-30.85-31.93Z" fill="#525252"></path><path d="M193.480 175.860 A28.170 28.170 0 1 0 249.820 175.860 A28.170 28.170 0 1 0 193.480 175.860 Z" fill="#fff0ed"></path><path d="M224.62,198.08a32.1,32.1,0,0,1-30.19-14.93,28.18,28.18,0,0,0,54.45,0A32,32,0,0,1,224.62,198.08Z" fill="#ffa694"></path><path d="M209.900 181.860 A3.310 3.310 0 1 0 216.520 181.860 A3.310 3.310 0 1 0 209.900 181.860 Z" fill="#45413c"></path><path d="M193.480 175.860 A28.170 28.170 0 1 0 249.820 175.860 A28.170 28.170 0 1 0 193.480 175.860 Z" fill="none" stroke="#45413c" stroke-linecap="round" stroke-linejoin="round" stroke-width="3"></path><path d="M206.68,257.93H150.57a7.8,7.8,0,0,0-7.8,7.8V334a209,209,0,0,0,33.57,2.68,207.57,207.57,0,0,0,38.13-3.48V265.73A7.8,7.8,0,0,0,206.68,257.93Z" fill="#bf8256"></path><path d="M142.77,334V265.73a7.8,7.8,0,0,1,7.8-7.8H29.13C45.82,296,89,325.27,142.77,334Z" fill="#f0c2a1"></path><path d="M96.35,250.06A1.39,1.39,0,0,1,97.71,249H160v8.94H96.27a1.37,1.37,0,0,1-1.09-.53,1.43,1.43,0,0,1-.27-1.18Z" fill="#bdbec0" stroke="#45413c" stroke-linecap="round" stroke-linejoin="round" stroke-width="3"></path><path d="M147.8,250.06a1.39,1.39,0,0,1,1.36-1.07h19.49a1.38,1.38,0,0,1,1.35,1.07l1.44,6.16a1.39,1.39,0,0,1-1.35,1.71H146Z" fill="#87898c" stroke="#45413c" stroke-linecap="round" stroke-linejoin="round" stroke-width="3"></path><path d="M142.77,334V265.73a7.8,7.8,0,0,1,7.8-7.8H29.13" fill="none" stroke="#45413c" stroke-linecap="round" stroke-linejoin="round" stroke-width="3"></path><path d="M214.47,333.22V265.73a7.8,7.8,0,0,0-7.79-7.8H150.57a7.8,7.8,0,0,0-7.8,7.8" fill="none" stroke="#45413c" stroke-linecap="round" stroke-linejoin="round" stroke-width="3"></path><path d="M73.25,257.93H46.12a2,2,0,0,1-1.86-2.59l2.6-7.71a2,2,0,0,1,1.86-1.33H73.25Z" fill="#bdbec0" stroke="#45413c" stroke-linecap="round" stroke-linejoin="round" stroke-width="3"></path><path d="M123,239.42H110.79V157.34H123a9.09,9.09,0,0,1,9.09,9.09v63.89A9.1,9.1,0,0,1,123,239.42Z" fill="#87898c" stroke="#45413c" stroke-linecap="round" stroke-linejoin="round" stroke-width="3"></path><path d="M12.930 157.340 L122.440 157.340 L122.440 239.420 L12.930 239.420 Z" fill="#f0f0f0"></path><path d="M122.44,164.76v-3.49a3.93,3.93,0,0,0-3.93-3.93H16.86a3.93,3.93,0,0,0-3.93,3.93v3.49Z" fill="#ffffff"></path><path d="M12.930 157.340 L122.440 157.340 L122.440 239.420 L12.930 239.420 Z" fill="none" stroke="#45413c" stroke-linecap="round" stroke-linejoin="round" stroke-width="3"></path><path d="M77.9,246.3l-2.81-40.52a7.88,7.88,0,0,0-7.85-7.35h-4.9a7.86,7.86,0,0,0-7.84,7.32l-3.34,48a3.92,3.92,0,0,0,3.92,4.2H101.6a2,2,0,0,0,1.82-2.71l-2.33-7.7a2,2,0,0,0-1.82-1.22Z" fill="#e0e0e0" stroke="#45413c" stroke-linecap="round" stroke-linejoin="round" stroke-width="3"></path><path d="M77.9 246.3L78.14 249.89" fill="none" stroke="#45413c" stroke-linecap="round" stroke-linejoin="round" stroke-width="3"></path><path d="M87.43 246.3L89.89 257.93" fill="none" stroke="#45413c" stroke-linecap="round" stroke-linejoin="round" stroke-width="3"></path><path d="M58.700 229.590 A5.900 5.900 0 1 0 70.500 229.590 A5.900 5.900 0 1 0 58.700 229.590 Z" fill="#ffffff" stroke="#45413c" stroke-linecap="round" stroke-linejoin="round" stroke-width="3"></path><path d="M21.13 230.99L21.13 222.86" fill="none" stroke="#45413c" stroke-linecap="round" stroke-linejoin="round" stroke-width="3"></path><path d="M27.55 230.99L27.55 222.86" fill="none" stroke="#45413c" stroke-linecap="round" stroke-linejoin="round" stroke-width="3"></path><path d="M33.97 230.99L33.97 222.86" fill="none" stroke="#45413c" stroke-linecap="round" stroke-linejoin="round" stroke-width="3"></path><path d="M231.38,248.67a8.23,8.23,0,0,1-5.83,4.71A102.28,102.28,0,0,1,204.14,256c-10.51,0-17.42-2.34-24.18-4.64-7.78-2.64-15.12-5.13-29.81-4.06a8.29,8.29,0,0,1-1.2-16.53c18-1.32,27.76,2,36.34,4.9,7.94,2.7,14.48,4.92,27.89,3.13" fill="#ffffff" stroke="#45413c" stroke-linecap="round" stroke-linejoin="round" stroke-width="3"></path><path d="M165.89,241.75C383.94,332.34,237.36,98.44,288.8,80.92" fill="none" stroke="#45413c" stroke-linecap="round" stroke-linejoin="round" stroke-width="3"></path><path d="M309.92 315.46L309.92 137.46 319.94 137.46 319.94 315.46" fill="#e0e0e0" stroke="#45413c" stroke-linecap="round" stroke-linejoin="round" stroke-width="3"></path><path d="M302.81 137.46H327.04V154.97H302.81z" fill="#bdbec0" stroke="#45413c" stroke-linecap="round" stroke-linejoin="round" stroke-width="3"></path><path d="M351.16,121.7a3.63,3.63,0,0,1-1.86-.51,3.7,3.7,0,0,1-1.34-5.07c3.76-6.47,3.56-21.14-.37-27.55a3.74,3.74,0,0,0-3.16-1.77H337a3.71,3.71,0,1,1,0-7.42h7.4a11.22,11.22,0,0,1,9.49,5.31c5.41,8.83,5.63,26.24.45,35.16A3.7,3.7,0,0,1,351.16,121.7Z" fill="#656769" stroke="#45413c" stroke-linecap="round" stroke-linejoin="round" stroke-width="3"></path><path d="M339,127.8a6.18,6.18,0,0,1-6.18,6.18H295.11a6.18,6.18,0,0,1-6.18-6.18V76.39l-9.71-15.16H339Z" fill="#b8ecff"></path><path d="M303.94,61.23H279.22l9.71,15.16V127.8a6.18,6.18,0,0,0,6.18,6.18h8.83Z" fill="#e5f8ff"></path><path d="M339,127.8a6.18,6.18,0,0,1-6.18,6.18H295.11a6.18,6.18,0,0,1-6.18-6.18V76.39l-9.71-15.16H339Z" fill="none" stroke="#45413c" stroke-linecap="round" stroke-linejoin="round" stroke-width="3"></path><path d="M295.12 73.33H332.81V125.22999999999999H295.12z" fill="#683a1b"></path><path d="M295.12 73.33H303.94V125.22999999999999H295.12z" fill="#915e3a"></path><path d="M286.64 77.47H341.16999999999996V89.81H286.64z" fill="#bdbec0" stroke="#45413c" stroke-linecap="round" stroke-linejoin="round" stroke-width="3"></path><path d="M342.43,133.28a3.7,3.7,0,0,1-3.66,4.28H289a3.7,3.7,0,0,1-3.66-4.28l1.1-7a1.24,1.24,0,0,1,1.22-1h52.42a1.25,1.25,0,0,1,1.22,1Z" fill="#656769" stroke="#45413c" stroke-linecap="round" stroke-linejoin="round" stroke-width="3"></path><path d="M288.8,61.23c0-7.61,11.24-13.78,25.1-13.78S339,53.62,339,61.23Z" fill="#bdbec0" stroke="#45413c" stroke-linecap="round" stroke-linejoin="round" stroke-width="3"></path><path d="M306.550 40.100 A7.350 7.350 0 1 0 321.250 40.100 A7.350 7.350 0 1 0 306.550 40.100 Z" fill="#656769" stroke="#45413c" stroke-linecap="round" stroke-linejoin="round" stroke-width="3"></path><path d="M170.94,238.32c159.94,50.61,66.42-173.56,115.7-160.85" fill="none" stroke="#45413c" stroke-linecap="round" stroke-linejoin="round" stroke-width="3"></path></g></svg>