<svg xmlns="http://www.w3.org/2000/svg" version="1.1" xmlns:xlink="http://www.w3.org/1999/xlink" xmlns:svgjs="http://svgjs.com/svgjs" viewBox="0 0 100 100" width="100" height="100"><g transform="matrix(0.2702702702702703,0,0,0.2702702702702703,0,0)"><path d="M348.72,101.22c-13.81.27-33.33,3-38.45-2.86-4.21-5.12-.58-18.14-.09-29.14a1.26,1.26,0,0,1,0-.27.42.42,0,0,0-.55-.51c-9.1,3.25-25.3,10.88-33.87,2-7.17-7.11-7.91-25-8.75-35.22v-.18c0-.4-.45-.74-.86-.23-4.58,5.77-12.6,15.52-21.22,17.66l-.07,0a17.25,17.25,0,0,1-4.07.59h-.13c-13.71-.52-20-16.58-23.76-29.73,0,0,0-.05,0-.08a.44.44,0,0,0-.82-.21c-1.32,2.45-3.19,6.43-4.12,8.09-.73,1.28-1.41,2.57-2.09,3.86-2.14,3.78-7,10.83-10.34,13.12l-.06,0a12.36,12.36,0,0,1-3.12,2.18l-.07,0A12.89,12.89,0,0,1,193,51.84l-.1,0a6.91,6.91,0,0,1-1.68.31h-.1a7.63,7.63,0,0,1-1.71.22h-.06a13.73,13.73,0,0,1-3.48-.4l-.22,0c-6.3-.83-14.49-9.12-16.92-11.3a1.22,1.22,0,0,1-.15-.17.45.45,0,0,0-.8.23c-.81,8.36-.29,27.72-15.19,27.93-10.69.17-25-8.13-34.24-13.65l-.13-.09a.44.44,0,0,0-.69.51c4.75,10.5,13.19,26.18,10.22,34.61-3.44,8.91-22,8-32.07,9a1.21,1.21,0,0,1-.46,0c-4-1.23,17.27,18.32,15.9,25.87s-26.81,9.92-47,17.44l-.24.06a.43.43,0,0,0-.07.82l.18.07c10.62,4.33,42.18,12.9,36.05,28.3a.14.14,0,0,0,0,.06c-1.72,5.14-7.87,11.87-11.31,15.15,0,0-2.94,3-3.55,3.61a1.19,1.19,0,0,1-.18.15c-.31.21-.31.75.35.81,8.8.78,27,1.23,28.88,13.78,1.59,10.27-8.74,23.76-14.88,31.75a1,1,0,0,1-.17.18.42.42,0,0,0,.27.74c1.42,0,2,0,5.38-.27h.11c10.06-1.58,16.88,1.82,21.93,5a1,1,0,0,1,.26.23c7.35,8.54,11.83,12.11,5.2,44.3-.06.29-.1.53.19.67a.44.44,0,0,0,.57-.15l0,0c10.17-9.12,21.64-20.09,35.83-20.63H169c5.57.3,7.73,1.88,10.36,4.74l.06.07a23.23,23.23,0,0,1,3.91,7.84l0,0a70.11,70.11,0,0,1,2,9.53c0,.25.06.44.33.53a.42.42,0,0,0,.5-.22l.13-.18c11.55-14,20.09-26.17,32.18-9.36,5.56,7.78,10.35,18.93,13.47,25.09.1.21.19.38.46.37a.44.44,0,0,0,.43-.44h0c5.82-17.8,9.69-38.22,21.37-35.56h0c7.12,1.34,17.37,9.29,25.1,13.73a.51.51,0,0,0,.77-.33c2.75-13,3.58-30.7,12-34.36,8.08-3.41,25.78,6.12,36.47,10.3a.44.44,0,0,0,.44-.74h0c-6.29-11.12-21.23-32.52-10.73-41.57l0,0c5.85-5.42,18.82-6.94,27.06-8.33.27,0,.48-.06.55-.34a.42.42,0,0,0-.3-.52h0c-12.1-9.77-31.17-23.54-21.83-35.38,2.33-3.1,6.62-6.07,9.93-8.06s7.14-4,7.94-4.47l.23-.1a.41.41,0,0,0,.11-.74c-8.34-5.28-25.29-13.07-24.62-22.85.82-10.28,16.83-21.9,31.6-33.44a.47.47,0,0,0-.31-.84Z" fill="#ffe500"></path><path d="M246.37,296.87c-15.28,0-25.31-3.41-35.13-6.75-11.3-3.83-22-7.45-43.3-5.9a12,12,0,1,1-1.75-24c26.21-1.91,40.33,2.89,52.79,7.12,13.83,4.7,24.75,8.41,53.45,2.26a12,12,0,1,1,5,23.54A148.56,148.56,0,0,1,246.37,296.87Z" fill="#e0e0e0" stroke="#3d453c" stroke-linecap="round" stroke-linejoin="round" stroke-width="4"></path><path d="M316.58,256.45a84.5,84.5,0,0,1-8.09,5" fill="none" stroke="#3d453c" stroke-linecap="round" stroke-linejoin="round" stroke-width="4"></path><path d="M265.26,271.88c-3.13,10.56-5.14,24-7.21,38h64.81a255.86,255.86,0,0,0-6.28-53.41,86.22,86.22,0,1,0-51.32,15.43Z" fill="#ffffff"></path><path d="M265.26,271.88c-3.13,10.56-5.14,24-7.21,38h64.81a255.86,255.86,0,0,0-6.28-53.41,86.22,86.22,0,1,0-51.32,15.43Z" fill="none" stroke="#3d453c" stroke-linecap="round" stroke-linejoin="round" stroke-width="4"></path><path d="M264.51,225.36s-8.18,20.54,11.4,28.5" fill="none" stroke="#3d453c" stroke-linecap="round" stroke-linejoin="round" stroke-width="4"></path><path d="M241.62,160.73s-18.45-4-18.38-29.33" fill="none" stroke="#3d453c" stroke-linecap="round" stroke-linejoin="round" stroke-width="4"></path><path d="M122.78,286.64a1.83,1.83,0,0,1,1.77-1.4H205.6v11.63H122.68a1.82,1.82,0,0,1-1.77-2.23Z" fill="#bdbec0" stroke="#3d453c" stroke-linecap="round" stroke-linejoin="round" stroke-width="4"></path><path d="M189.69,286.64a1.81,1.81,0,0,1,1.76-1.4h25.34a1.81,1.81,0,0,1,1.77,1.4l1.87,8a1.78,1.78,0,0,1-.35,1.54,1.81,1.81,0,0,1-1.42.69H187.3Z" fill="#87898c" stroke="#3d453c" stroke-linecap="round" stroke-linejoin="round" stroke-width="4"></path><path d="M308.8,286.29a12,12,0,0,1-8.46,6.84,148.56,148.56,0,0,1-31.1,3.74c-15.28,0-25.31-3.41-35.13-6.75-11.3-3.83-22-7.45-43.3-5.9a12,12,0,1,1-1.75-24c26.21-1.91,40.33,2.89,52.79,7.12,11.53,3.91,21,7.15,40.51,4.55" fill="#ffffff" stroke="#3d453c" stroke-linecap="round" stroke-linejoin="round" stroke-width="4"></path><path d="M343,296.87H43a26,26,0,0,0,26,26H317A26,26,0,0,0,343,296.87Z" fill="#f7e5c6"></path><path d="M341.03 296.87L45.03 296.87" fill="none" stroke="#3d453c" stroke-linecap="round" stroke-linejoin="round" stroke-width="4"></path><path d="M211.53,220.13c-26.6,10.13-51.27,12.47-75.09,11.31l-5.06-48.18a390.41,390.41,0,0,1,75.8-4.54Z" fill="#e0e0e0" stroke="#3d453c" stroke-linecap="round" stroke-linejoin="round" stroke-width="4"></path><path d="M245.59,244.57c22.3-2.34,38.87-8.71,34.27-52.52-4.76-45.23-22.14-46.59-44.44-44.25-14,1.47-25.83,11.35-32,25.12l-17.56-.31a134.17,134.17,0,0,0,6.39,60.87L211,229.14C219.88,239.8,232.58,245.94,245.59,244.57Z" fill="#ff6242" stroke="#3d453c" stroke-linecap="round" stroke-linejoin="round" stroke-width="4"></path><path d="M223.79,190.16c-13.74,1.45-20.41-9.41-21.65-21.2s6.55-20.4,17.16-21.52,20,5.68,21.26,17.48S237.53,188.72,223.79,190.16Z" fill="#ff6242" stroke="#3d453c" stroke-linecap="round" stroke-linejoin="round" stroke-width="4"></path><path d="M228.08,189.28S226,218.84,238,229.16s20.58,3,20.58,3" fill="none" stroke="#3d453c" stroke-linecap="round" stroke-linejoin="round" stroke-width="4"></path><path d="M104.85,285.75l-34,6.36a2.51,2.51,0,0,1-2.2-.65,2.54,2.54,0,0,1-.75-2.17L69.31,279a2.52,2.52,0,0,1,2-2.11l30.78-5.75Z" fill="#bdbec0" stroke="#3d453c" stroke-linecap="round" stroke-linejoin="round" stroke-width="4"></path><path d="M162.74,250.88l-15.13,2.83-19.24-103,15.13-2.83a11.8,11.8,0,0,1,13.77,9.44l14.91,79.78A11.8,11.8,0,0,1,162.74,250.88Z" fill="#87898c" stroke="#3d453c" stroke-linecap="round" stroke-linejoin="round" stroke-width="4"></path><path d="M13.990 159.930 L153.790 159.930 L153.790 264.710 L13.990 264.710 Z" fill="#f0f0f0" transform="translate(-37.57 19.02) rotate(-10.58)"></path><path d="M145.69,162.49l-.54-2.9a11.81,11.81,0,0,0-13.77-9.44L17.17,171.5a11.8,11.8,0,0,0-9.44,13.77l.54,2.9Z" fill="#ffffff"></path><path d="M13.990 159.930 L153.790 159.930 L153.790 264.710 L13.990 264.710 Z" fill="none" stroke="#3d453c" stroke-linecap="round" stroke-linejoin="round" stroke-width="4" transform="translate(-37.57 19.02) rotate(-10.58)"></path><path d="M108,270.06l-13-50.19a10,10,0,0,0-11.57-7.37l-6.15,1.15a10,10,0,0,0-8.13,11l7.06,61A5,5,0,0,0,82,290l58.38-10.91a2.49,2.49,0,0,0,1.84-1.47,2.51,2.51,0,0,0-.19-2.35l-4.74-9.12a2.5,2.5,0,0,0-2.57-1.11Z" fill="#e0e0e0" stroke="#3d453c" stroke-linecap="round" stroke-linejoin="round" stroke-width="4"></path><path d="M107.95 270.06L109.09 274.51" fill="none" stroke="#3d453c" stroke-linecap="round" stroke-linejoin="round" stroke-width="4"></path><path d="M119.9 267.83L125.73 281.85" fill="none" stroke="#3d453c" stroke-linecap="round" stroke-linejoin="round" stroke-width="4"></path><path d="M79.810 252.210 A7.530 7.530 0 1 0 94.870 252.210 A7.530 7.530 0 1 0 79.810 252.210 Z" fill="#ffffff" stroke="#3d453c" stroke-linecap="round" stroke-linejoin="round" stroke-width="4"></path><path d="M33.12 264.16L31.22 253.96" fill="none" stroke="#3d453c" stroke-linecap="round" stroke-linejoin="round" stroke-width="4"></path><path d="M41.18 262.65L39.28 252.46" fill="none" stroke="#3d453c" stroke-linecap="round" stroke-linejoin="round" stroke-width="4"></path><path d="M49.24 261.15L47.33 250.95" fill="none" stroke="#3d453c" stroke-linecap="round" stroke-linejoin="round" stroke-width="4"></path><path d="M270.3,133.92c-21.72,17.49-13.25,48,5.34,54-14.78,40,17.05,45,20.5,45.15" fill="#ffffff" stroke="#3d453c" stroke-linecap="round" stroke-linejoin="round" stroke-width="4"></path></g></svg>