<svg viewBox="0 0 100 100" height="100" width="100" xmlns="http://www.w3.org/2000/svg">,,,,,,,,,,,,,,,,,,,,,,,,,,,,,,,,,,,,,,,,,,,,,,,,,,,,,,,,,,,,,,,,,,,,,,,,,,,,,,,,,,,,,,,,,,,,,,,,,,,,,,,,,<g transform="matrix(0.2702702702702703,0,0,0.2702702702702703,0,0)"><path d="M112,235.58a.26.26,0,0,0-.1-.23,4.38,4.38,0,0,0-.54.23q-29.25,19.15-58.49,38.33c-7.87,5.17-15.67,10.4-23.53,15.56q-9.45,6.21-18.95,12.38v13.71l101.5-79.76A.29.29,0,0,0,112,235.58Z" fill="#ffe500"></path><path d="M64.24,107.82q26.25,14.42,52.44,28.92c1.93,1.06,3.89,2.07,5.84,3.1a.41.41,0,0,0-.13-.6l-112-72.77v12L33.27,91C43.59,96.57,53.94,102.16,64.24,107.82Z" fill="#ffe500"></path><path d="M282.88,90.29Q271,102.13,259,114c-2.76,2.74-5.5,5.5-8.25,8.25a.56.56,0,0,0,.68,0L350.8,35H338.7c-4.45,4.39-9,8.75-13.4,13.16Z" fill="#ffe500"></path><path d="M279.56,130.49a.42.42,0,0,0,.13.36c.57-.25,1.14-.49,1.7-.76q20.49-10.16,41-20.3,19.49-9.58,39-19.12V81l-81.61,49.15A.48.48,0,0,0,279.56,130.49Z" fill="#ffe500"></path><path d="M110.32,98.64c-.23-.29-.46-.59-.71-.86Q94.88,81.57,80.13,65.36L52.46,35H42l68.22,64.33A.47.47,0,0,0,110.32,98.64Z" fill="#ffe500"></path><path d="M295.42,242.23c-2-1.06-4-2.06-6.05-3.09a.33.33,0,0,0,.11.49l71.92,47.78V277.5q-8.38-4.51-16.78-9Q320,255.35,295.42,242.23Z" fill="#ffe500"></path><path d="M33.89,329.1c7.77-7.54,15.6-15,23.35-22.6Q77,287.27,96.63,268q12.42-12.09,24.91-24.14l6.37-6.21a.59.59,0,0,0-.74,0L18.8,334.89l-.12.11H28C30,333.06,31.88,331.05,33.89,329.1Z" fill="#ffe500"></path><path d="M73.53,90.47C85,99,96.39,107.68,107.83,116.28c2.5,1.88,5,3.74,7.54,5.61a.39.39,0,0,0,0-.6L10.41,35.62v7.64C18.28,49.18,26.12,55.13,34,61,47.16,70.86,60.38,80.63,73.53,90.47Z" fill="#ffe500"></path><path d="M196.67,112.79Q202.4,73.94,208.16,35h-7.64q-2.19,39.15-4.38,78.16A.49.49,0,0,0,196.67,112.79Z" fill="#ffe500"></path><path d="M246.24,253.9a.53.53,0,0,0-.35.06,2.9,2.9,0,0,0,.25.66q8.52,12.4,17.05,24.79,11.24,16.33,22.45,32.68c5.21,7.63,10.37,15.28,15.58,22.91h9.51l-64.19-80.94A.43.43,0,0,0,246.24,253.9Z" fill="#ffe500"></path><path d="M153.81,263.27Q136.43,299.06,119,335h9.21l26.43-72A.67.67,0,0,0,153.81,263.27Z" fill="#ffe500"></path><path d="M269.47,260.46a.33.33,0,0,0-.42,0,.23.23,0,0,0,0,.36q11.7,12.6,23.41,25.18,16,17.11,32.11,34.2c4.63,4.94,9.21,9.9,13.84,14.83h8.14l-.07-.08Z" fill="#ffe500"></path><path d="M231.93,76.58q-3.52,9.09-7,18.2c-.85,2.24-1.56,4.52-2.32,6.78a.3.3,0,0,0,.23.38Q238.51,68.54,254.2,35h-6.27q-4.32,11.31-8.64,22.63C236.86,64,234.37,70.26,231.93,76.58Z" fill="#ffe500"></path><path d="M126.9,284.62l8.18-14.85a.5.5,0,0,0-.59.15L91.24,335H99c3.24-5.88,6.52-11.74,9.77-17.61Q117.83,301,126.9,284.62Z" fill="#ffe500"></path><path d="M44,153.27c5.72.88,11.43,1.83,17.16,2.72,6,.94,12,1.84,18,2.76l7,1.05a.5.5,0,0,0-.42-.55L10.41,143v5c4,.67,8,1.35,12,2C29.58,151.1,36.82,152.15,44,153.27Z" fill="#ffe500"></path><path d="M291.1,224.25c-2.07-.87-4.17-1.69-6.25-2.54a.5.5,0,0,0,.26.7l76.29,35.67V253.8q-11.37-4.71-22.71-9.49Q314.89,234.3,291.1,224.25Z" fill="#ffe500"></path><path d="M83.45,133c.7.3,1.44.53,2.18.77a.64.64,0,0,0,.75-.27l-76-35.74v4.54q11.74,5,23.5,9.87Q58.69,122.58,83.45,133Z" fill="#ffe500"></path><path d="M293,187.89l68.43,6.91v-4.27l-68-2.92A.35.35,0,0,0,293,187.89Z" fill="#ffe500"></path><path d="M47.27,257.21a1,1,0,0,0-1.25-.27q-17.82,8.69-35.61,17.42v6.25L47,258.29A.73.73,0,0,0,47.27,257.21Z" fill="#ffe500"></path><path d="M91.26,194.37,10.41,205v3.5l81.4-13.79A.48.48,0,0,0,91.26,194.37Z" fill="#ffe500"></path><path d="M206.7,264.49c.3,1.4.6,2.79.86,4.19q1.56,8.51,3.08,17,1.62,9.06,3.23,18.11c.91,5.1,1.79,10.21,2.75,15.31,1,5.3,2.11,10.58,3.07,15.89h4.22c-5.6-23.9-11.14-47.54-16.67-71.17A.59.59,0,0,0,206.7,264.49Z" fill="#ffe500"></path><path d="M73.36,227.18a.33.33,0,0,0-.38-.13Q54,234,35,240.9c-8.2,3-16.37,6-24.57,9.06v3.78l62.81-26.23A.23.23,0,0,0,73.36,227.18Z" fill="#ffe500"></path><path d="M287.9,267.22a.27.27,0,0,0,0,.42q13.78,12.51,27.6,25c10.07,9.08,20.22,18.11,30.29,27.2,5.24,4.73,10.47,9.49,15.62,14.31v-3l-73-63.93A.39.39,0,0,0,287.9,267.22Z" fill="#ffe500"></path><path d="M310.68,131.36a.31.31,0,0,0,.38.12q17.6-6.55,35.18-13.14l15.16-5.62v-3.36L310.81,131A.23.23,0,0,0,310.68,131.36Z" fill="#ffe500"></path><path d="M148.33,67.34Q143.21,51.15,138.1,35h-4l13.67,32.09A.51.51,0,0,0,148.33,67.34Z" fill="#ffe500"></path><path d="M194.44,275.67q.72,29.64,1.44,59.33h3.66c-1.59-20-3.17-39.83-4.75-59.65A.34.34,0,0,0,194.44,275.67Z" fill="#ffe500"></path><path d="M309.06,161.57a.28.28,0,0,0,.32.2c4.84-.65,9.66-1.34,14.5-2,5.19-.67,10.4-1.26,15.59-1.93,4.46-.57,8.9-1.24,13.36-1.83L361.4,155v-2.73l-52.12,9.05A.25.25,0,0,0,309.06,161.57Z" fill="#ffe500"></path><path d="M291.26,55.94a.41.41,0,0,0,.46-.11L310.12,35h-3.59Q299,45,291.58,55.06A2.89,2.89,0,0,0,291.26,55.94Z" fill="#ffe500"></path><path d="M104.93,81.48a.56.56,0,0,0,.4-.1c-.41-.57-.78-1.16-1.24-1.69Q94,67.72,83.87,55.78,75.08,45.39,66.3,35H64.05l40.51,46.3A.55.55,0,0,0,104.93,81.48Z" fill="#ffe500"></path><path d="M260.05,289.31a.44.44,0,0,0,0,.4c1,1.66,2,3.32,3.07,5,5.06,7.94,10.16,15.86,15.17,23.83,3.44,5.48,6.76,11,10.19,16.49h2.07l-30.24-46A.54.54,0,0,0,260.05,289.31Z" fill="#ffe500"></path><path d="M230.42,290.27a.29.29,0,0,0-.23.38c2.9,8,5.84,16,8.72,24,2.43,6.76,4.85,13.53,7.17,20.32h2l-17.2-44.54A.36.36,0,0,0,230.42,290.27Z" fill="#ffe500"></path><path d="M183.92,68.94c0-.65,0-1.31,0-2-.14-4.81-.26-9.62-.44-14.43q-.34-8.77-.71-17.55h-1.46q1.11,16.83,2.24,33.63A.35.35,0,0,0,183.92,68.94Z" fill="#ffe500"></path><path d="M41.34,185.35a.45.45,0,0,0-.49-.39c-10.15.24-20.29.57-30.44.89v1.41l30.48-1.48A.44.44,0,0,0,41.34,185.35Z" fill="#ffe500"></path><path d="M342.8,165c-6.17.62-12.35,1.12-18.51,1.71-2.94.29-5.86.66-8.78,1a.56.56,0,0,0-.33.17.37.37,0,0,0-.07.32l11.95-1,32.26-2.86,2.08-.19v-1.14l-.35,0C355,163.62,348.89,164.34,342.8,165Z" fill="#ffe500"></path><path d="M49.84,145.33,57,147a.58.58,0,0,0,.41-.06.4.4,0,0,0,.22-.3l-47.2-12V136c3.48.83,7,1.63,10.43,2.46Z" fill="#ffe500"></path><path d="M56.61,207.54a8.66,8.66,0,0,0-1.69,0c-4,.8-7.9,1.65-11.85,2.48-6.56,1.38-13.12,2.79-19.69,4.12-4.32.87-8.64,1.71-13,2.55V218l45.9-10A.35.35,0,0,0,56.61,207.54Z" fill="#ffe500"></path><path d="M176.93,311.09C175.58,319,174.22,327,172.85,335H176c.44-8.16.87-16.16,1.3-24.16A.34.34,0,0,0,176.93,311.09Z" fill="#ffe500"></path><path d="M330.55,132.84a.36.36,0,0,0,.44.17c2.46-.76,4.9-1.54,7.34-2.34l23.07-7.59v-1.19l-30.66,10.56A.3.3,0,0,0,330.55,132.84Z" fill="#ffe500"></path><path d="M97.28,96.82,85.74,87a.3.3,0,0,0-.39,0c1.55,1.45,3,3,4.65,4.33,2.37,2,4.85,3.93,7.28,5.88a.21.21,0,0,0,.09-.18A.23.23,0,0,0,97.28,96.82Z" fill="#ffe500"></path><path d="M231.54,54.63a.66.66,0,0,1,0,.14l0-.07A.06.06,0,0,0,231.54,54.63Z" fill="#ffe500"></path><path d="M230.32,59.45a.32.32,0,0,0,.36-.17c.19-.52.35-1,.5-1.57a19.19,19.19,0,0,0,.35-2.94c-.47,1.46-.93,2.92-1.4,4.37A.24.24,0,0,0,230.32,59.45Z" fill="#ffe500"></path><path d="M74.66,190.67a.78.78,0,0,0-.54-.14l-6.59.57h7.38A.57.57,0,0,0,74.66,190.67Z" fill="#ffe500"></path><path d="M287.18,99.47a.62.62,0,0,0-.44.17l-3.51,3.49,4.4-3.5A.61.61,0,0,0,287.18,99.47Z" fill="#ffe500"></path><path d="M282.52,103.84l.71-.71-.91.73A.17.17,0,0,0,282.52,103.84Z" fill="#ffe500"></path><path d="M202.72,204.08a2,2,0,0,0-2-2H144.15a2,2,0,0,0-2,2V296h60.55Z" fill="#fff" stroke="#45413c" stroke-linecap="round" stroke-linejoin="round" stroke-width="3"></path><path d="M217.48,204.08a2,2,0,0,0-2-2H189.94a2,2,0,0,0-2,2V296h29.52Z" fill="#e8f4fa" stroke="#45413c" stroke-linecap="round" stroke-linejoin="round" stroke-width="3"></path><path d="M142.17 216.88L164.33 216.88" fill="none" stroke="#45413c" stroke-linecap="round" stroke-linejoin="round" stroke-width="3"></path><path d="M142.17 245.68L152.27 245.68" fill="none" stroke="#45413c" stroke-linecap="round" stroke-linejoin="round" stroke-width="3"></path><path d="M142.17 291.22L150.05 291.22" fill="none" stroke="#45413c" stroke-linecap="round" stroke-linejoin="round" stroke-width="3"></path><path d="M142.17 281.62L160.88 281.62" fill="none" stroke="#45413c" stroke-linecap="round" stroke-linejoin="round" stroke-width="3"></path><path d="M217.48 237.06L200.51 237.06" fill="none" stroke="#45413c" stroke-linecap="round" stroke-linejoin="round" stroke-width="3"></path><path d="M217.48 283.59L210.61 283.59" fill="none" stroke="#45413c" stroke-linecap="round" stroke-linejoin="round" stroke-width="3"></path><path d="M180.57 262.17L199.28 262.17" fill="none" stroke="#45413c" stroke-linecap="round" stroke-linejoin="round" stroke-width="3"></path><path d="M174.17 225L195.59 225" fill="none" stroke="#45413c" stroke-linecap="round" stroke-linejoin="round" stroke-width="3"></path><path d="M151.53 216.88L159.03 224.63 164.08 216.88 151.53 216.88z" fill="#f0f0f0" stroke="#45413c" stroke-linecap="round" stroke-linejoin="round" stroke-width="3"></path><path d="M200.51 237.06L204.94 245.68 213.07 237.06 200.51 237.06z" fill="#fff" stroke="#45413c" stroke-linecap="round" stroke-linejoin="round" stroke-width="3"></path><path d="M180.93,241.67a2,2,0,0,0-2-2H122.36a2,2,0,0,0-2,2v91.91h60.55Z" fill="#fff" stroke="#45413c" stroke-linecap="round" stroke-linejoin="round" stroke-width="3"></path><path d="M195.69,241.67a2,2,0,0,0-2-2H168.15a2,2,0,0,0-2,2v91.91h29.52Z" fill="#e8f4fa" stroke="#45413c" stroke-linecap="round" stroke-linejoin="round" stroke-width="3"></path><path d="M120.38 254.47L142.54 254.47" fill="none" stroke="#45413c" stroke-linecap="round" stroke-linejoin="round" stroke-width="3"></path><path d="M120.38 328.81L128.26 328.81" fill="none" stroke="#45413c" stroke-linecap="round" stroke-linejoin="round" stroke-width="3"></path><path d="M120.38 319.21L139.09 319.21" fill="none" stroke="#45413c" stroke-linecap="round" stroke-linejoin="round" stroke-width="3"></path><path d="M195.69 274.66L178.72 274.66" fill="none" stroke="#45413c" stroke-linecap="round" stroke-linejoin="round" stroke-width="3"></path><path d="M195.69 321.18L188.82 321.18" fill="none" stroke="#45413c" stroke-linecap="round" stroke-linejoin="round" stroke-width="3"></path><path d="M158.78 299.77L177.49 299.77" fill="none" stroke="#45413c" stroke-linecap="round" stroke-linejoin="round" stroke-width="3"></path><path d="M152.38 262.59L173.8 262.59" fill="none" stroke="#45413c" stroke-linecap="round" stroke-linejoin="round" stroke-width="3"></path><path d="M129.74 254.47L137.24 262.23 142.29 254.47 129.74 254.47z" fill="#f0f0f0" stroke="#45413c" stroke-linecap="round" stroke-linejoin="round" stroke-width="3"></path><path d="M178.72 274.66L183.15 283.27 191.28 274.66 178.72 274.66z" fill="#fff" stroke="#45413c" stroke-linecap="round" stroke-linejoin="round" stroke-width="3"></path><path d="M217.05,263.32a2,2,0,0,0-2-2H158.48a2,2,0,0,0-2,2v70.26h60.55Z" fill="#fff" stroke="#45413c" stroke-linecap="round" stroke-linejoin="round" stroke-width="3"></path><path d="M231.81,263.32a2,2,0,0,0-2-2H204.26a2,2,0,0,0-2,2v70.26h29.52Z" fill="#e8f4fa" stroke="#45413c" stroke-linecap="round" stroke-linejoin="round" stroke-width="3"></path><path d="M156.5 276.12L178.66 276.12" fill="none" stroke="#45413c" stroke-linecap="round" stroke-linejoin="round" stroke-width="3"></path><path d="M156.5 304.92L166.59 304.92" fill="none" stroke="#45413c" stroke-linecap="round" stroke-linejoin="round" stroke-width="3"></path><path d="M231.81 296.31L214.84 296.31" fill="none" stroke="#45413c" stroke-linecap="round" stroke-linejoin="round" stroke-width="3"></path><path d="M188.5 284.25L209.92 284.25" fill="none" stroke="#45413c" stroke-linecap="round" stroke-linejoin="round" stroke-width="3"></path><path d="M165.86 276.12L173.36 283.88 178.41 276.12 165.86 276.12z" fill="#f0f0f0" stroke="#45413c" stroke-linecap="round" stroke-linejoin="round" stroke-width="3"></path><path d="M214.84 296.31L219.27 304.92 227.4 296.31 214.84 296.31z" fill="#fff" stroke="#45413c" stroke-linecap="round" stroke-linejoin="round" stroke-width="3"></path><path d="M151.15,287.62a2,2,0,0,0-2-2H92.58a2,2,0,0,0-2,2v46h60.54Z" fill="#fff" stroke="#45413c" stroke-linecap="round" stroke-linejoin="round" stroke-width="3"></path><path d="M165.91,287.62a2,2,0,0,0-2-2H138.37a2,2,0,0,0-2,2v46h29.52Z" fill="#e8f4fa" stroke="#45413c" stroke-linecap="round" stroke-linejoin="round" stroke-width="3"></path><path d="M90.61 300.42L112.76 300.42" fill="none" stroke="#45413c" stroke-linecap="round" stroke-linejoin="round" stroke-width="3"></path><path d="M165.91 320.61L148.95 320.61" fill="none" stroke="#45413c" stroke-linecap="round" stroke-linejoin="round" stroke-width="3"></path><path d="M122.61 308.55L144.02 308.55" fill="none" stroke="#45413c" stroke-linecap="round" stroke-linejoin="round" stroke-width="3"></path><path d="M99.96 300.42L107.47 308.18 112.52 300.42 99.96 300.42z" fill="#f0f0f0" stroke="#45413c" stroke-linecap="round" stroke-linejoin="round" stroke-width="3"></path><path d="M254.7,287.62a2,2,0,0,0-2-2H196.13a2,2,0,0,0-2,2v46H254.7Z" fill="#fff" stroke="#45413c" stroke-linecap="round" stroke-linejoin="round" stroke-width="3"></path><path d="M269.46,287.62a2,2,0,0,0-2-2H241.92a2,2,0,0,0-2,2v46h29.52Z" fill="#e8f4fa" stroke="#45413c" stroke-linecap="round" stroke-linejoin="round" stroke-width="3"></path><path d="M194.15 300.42L216.31 300.42" fill="none" stroke="#45413c" stroke-linecap="round" stroke-linejoin="round" stroke-width="3"></path><path d="M269.46 320.61L252.49 320.61" fill="none" stroke="#45413c" stroke-linecap="round" stroke-linejoin="round" stroke-width="3"></path><path d="M226.16 308.55L247.57 308.55" fill="none" stroke="#45413c" stroke-linecap="round" stroke-linejoin="round" stroke-width="3"></path><path d="M203.51 300.42L211.02 308.18 216.06 300.42 203.51 300.42z" fill="#f0f0f0" stroke="#45413c" stroke-linecap="round" stroke-linejoin="round" stroke-width="3"></path><path d="M195.44,131.93s11.35-15.19,36.37-11.92c12.48,1.64,17.23,14.28,28.26,18.64a30.24,30.24,0,0,0,24-.7c-8,17.92-11.42,29.25-5.87,42.87,0,0-11.46,8.28-30.67-.67-14.67-6.83-14.5-19.16-24.25-25.65-14.4-9.59-33.39-6.51-33.39-6.51Z" fill="#ff512e" stroke="#45413c" stroke-linecap="round" stroke-linejoin="round" stroke-width="3"></path><path d="M205.52,127.36a49.18,49.18,0,1,0-54.7-.65c-8,3.17-15.57,9.78-15.53,20.12,0,15,12.81,21.83,21.08,21.29-.68,17.59-.73,34,1.43,34,4.68,0,6.53-20.76,6.53-20.76l25.6.47s3.64,20.29,7.22,20.29c1.66,0,1.47-16.19.8-33.66,8.24.72,21.53-6.34,21.57-21.61C219.55,137.15,212.93,130.74,205.52,127.36ZM152.7,146.45c.39-2.31,2.83-3.66,5-4.43-.23,3.65-.46,7.7-.69,11.94C154.41,152,152.1,150,152.7,146.45Zm44.63,8.06c-.23-4.49-.46-8.8-.67-12.64,2.27.73,5,2.11,5.45,4.58C202.74,150.21,200.12,152.36,197.33,154.51Z" fill="#fff"></path><path d="M205.52,127.36a49.18,49.18,0,1,0-54.7-.65c-8,3.17-15.57,9.78-15.53,20.12,0,15,12.81,21.83,21.08,21.29-.68,17.59-.73,34,1.43,34,4.68,0,6.53-20.76,6.53-20.76l25.6.47s3.64,20.29,7.22,20.29c1.66,0,1.47-16.19.8-33.66,8.24.72,21.53-6.34,21.57-21.61C219.55,137.15,212.93,130.74,205.52,127.36ZM152.7,146.45c.39-2.31,2.83-3.66,5-4.43-.23,3.65-.46,7.7-.69,11.94C154.41,152,152.1,150,152.7,146.45Zm44.63,8.06c-.23-4.49-.46-8.8-.67-12.64,2.27.73,5,2.11,5.45,4.58C202.74,150.21,200.12,152.36,197.33,154.51Z" fill="none" stroke="#45413c" stroke-linecap="round" stroke-linejoin="round" stroke-width="3"></path><path d="M157.7,142c-2.17.76-4.61,2.12-5,4.43-1.34,7.88,11.68,8.25,10.5,16.75-1.39,9.93-27.85,5.18-27.91-16.37,0-14.09,14-21.27,24.08-22.22" fill="none" stroke="#45413c" stroke-linecap="round" stroke-linejoin="round" stroke-width="3"></path><path d="M196.66,141.87c2.27.73,5,2.11,5.45,4.58,1.33,7.88-11.68,8.71-10.49,17.2,1.39,9.94,27.84,4.73,27.9-16.82,0-14.09-14-21.27-24.08-22.22" fill="none" stroke="#45413c" stroke-linecap="round" stroke-linejoin="round" stroke-width="3"></path><path d="M162.330 52.840 A2.000 2.000 0 1 0 166.330 52.840 A2.000 2.000 0 1 0 162.330 52.840 Z" fill="#45413c"></path><path d="M189.540 52.840 A2.000 2.000 0 1 0 193.540 52.840 A2.000 2.000 0 1 0 189.540 52.840 Z" fill="#45413c"></path><path d="M184.53,57.71a6.75,6.75,0,0,1-13.5,0Z" fill="#ffa694" stroke="#45413c" stroke-linecap="round" stroke-linejoin="round" stroke-width="3"></path><path d="M176.75,89.46c23.4,0,27.75,22.89,21.5,28.86s-35.46,6.14-41.57-1.13S159.27,89.46,176.75,89.46Z" fill="#e0e0e0"></path><path d="M177.86 137.84L170.78 128.24 184.78 128.24 177.86 137.84z" fill="#4acfff" stroke="#45413c" stroke-linecap="round" stroke-linejoin="round" stroke-width="3"></path><path d="M177.86 137.84L170.78 163.17 177.78 169.67 184.78 163.17 177.86 137.84z" fill="#4acfff" stroke="#45413c" stroke-linecap="round" stroke-linejoin="round" stroke-width="3"></path><path d="M274.64,243.08l21,10.93a16.13,16.13,0,0,1,2.84-12.68c4.51-5.89,13.62-7.07,17.4-10.81l-4-8.74-16.07-7.89a15.77,15.77,0,0,1-3.39,9.36c-3.47,4.24-10.94,5.29-13.75,9.63A35,35,0,0,0,274.64,243.08Z" fill="#fff" stroke="#45413c" stroke-linecap="round" stroke-linejoin="round" stroke-width="3"></path><path d="M315.89,230.52s-5.5,1.24-7.87-3.21c4.3-2.54,3.88-5.53,3.88-5.53Z" fill="#f0f0f0" stroke="#45413c" stroke-linecap="round" stroke-linejoin="round" stroke-width="3"></path><path d="M288.6,98l16,10.46s15.86-2.6,13.45-13.22S302.1,85.13,302.1,85.13a5.42,5.42,0,0,1,1.67,6.52C302.11,95.84,288.6,98,288.6,98Z" fill="#f0f0f0" stroke="#45413c" stroke-linecap="round" stroke-linejoin="round" stroke-width="3"></path><path d="M317.39,93.22a4.76,4.76,0,0,0-.24-.53c-3.81-8-15-7.56-15-7.56s-7.35-.34-8,3.91l16.4,8.68s1.12-9.53,6.93-4.46Z" fill="#fff" stroke="#45413c" stroke-linecap="round" stroke-linejoin="round" stroke-width="3"></path><path d="M77,230.91,51.84,244a19.35,19.35,0,0,0-3.41-15.21c-5.41-7.06-16.33-8.48-20.87-13l4.78-10.48,19.28-9.46a18.94,18.94,0,0,0,4.06,11.23c4.17,5.08,13.12,6.34,16.5,11.55A42.12,42.12,0,0,1,77,230.91Z" fill="#fff" stroke="#45413c" stroke-linecap="round" stroke-linejoin="round" stroke-width="3"></path><path d="M27.56,215.84S34.15,217.33,37,212c-5.15-3-4.66-6.64-4.66-6.64Z" fill="#f0f0f0" stroke="#45413c" stroke-linecap="round" stroke-linejoin="round" stroke-width="3"></path><path d="M93.53,147.62l-16,10.46s-15.86-2.6-13.44-13.22S80,134.74,80,134.74a5.42,5.42,0,0,0-1.67,6.52C80,145.45,93.53,147.62,93.53,147.62Z" fill="#f0f0f0" stroke="#45413c" stroke-linecap="round" stroke-linejoin="round" stroke-width="3"></path><path d="M64.75,142.83a4.06,4.06,0,0,1,.23-.53c3.82-8,15-7.56,15-7.56s7.35-.34,8,3.91l-16.4,8.68s-1.13-9.53-6.94-4.46Z" fill="#fff" stroke="#45413c" stroke-linecap="round" stroke-linejoin="round" stroke-width="3"></path></g></svg>