<?xml version="1.0" encoding="UTF-8"?>
<svg width="56px" height="56px" viewBox="0 0 56 56" version="1.1" xmlns="http://www.w3.org/2000/svg" xmlns:xlink="http://www.w3.org/1999/xlink">
    <g id="Page-1" stroke="none" stroke-width="1" fill="none" fill-rule="evenodd">
        <g id="check" fill-rule="nonzero">
            <g id="check-normal">
                <g id="check-on" transform="translate(28.000000, 0.000000)">
                    <rect id="circle" fill="#0086FF" x="0" y="0" width="28" height="28"></rect>
                    <path d="M13.0043512,15.6314168 L19.1446369,9.18901215 C19.702494,8.60370009 20.606994,8.60362515 21.1649226,9.18901215 C21.7228512,9.77439915 21.7227798,10.7234141 21.1648512,11.3087261 L14.014494,18.8109878 C13.456494,19.3964498 12.551994,19.396225 11.9942083,18.8109878 L8.00177976,14.6220721 C7.44385119,14.036685 7.44385119,13.0876701 8.00177976,12.5023581 C8.55970833,11.917046 9.46420833,11.9169711 10.0220655,12.5023581 L13.0043512,15.6314168 Z" id="Path" fill="#FFFFFF"></path>
                </g>
                <g id="check-off" fill="#FFFFFF" stroke="#D8D8D8" stroke-width="2">
                    <rect id="circle" x="1" y="1" width="26" height="26"></rect>
                </g>
            </g>
            <g id="check-hover" transform="translate(0.000000, 28.000000)">
                <g id="check-on" transform="translate(28.000000, 0.000000)">
                    <rect id="circle" fill="#0069D9" x="0" y="0" width="28" height="28"></rect>
                    <path d="M13.0043512,15.6314168 L19.1446369,9.18901215 C19.702494,8.60370009 20.606994,8.60362515 21.1649226,9.18901215 C21.7228512,9.77439915 21.7227798,10.7234141 21.1648512,11.3087261 L14.014494,18.8109878 C13.456494,19.3964498 12.551994,19.396225 11.9942083,18.8109878 L8.00177976,14.6220721 C7.44385119,14.036685 7.44385119,13.0876701 8.00177976,12.5023581 C8.55970833,11.917046 9.46420833,11.9169711 10.0220655,12.5023581 L13.0043512,15.6314168 Z" id="Path" fill="#FFFFFF"></path>
                </g>
                <g id="check-off" fill="#FFFFFF" stroke="#B3B3B3" stroke-width="2">
                    <rect id="circle" x="1" y="1" width="26" height="26"></rect>
                </g>
            </g>
        </g>
    </g>
</svg>