<?xml version="1.0" encoding="UTF-8"?>
<svg width="93px" height="93px" viewBox="0 0 93 93" version="1.1" xmlns="http://www.w3.org/2000/svg" xmlns:xlink="http://www.w3.org/1999/xlink">
    <title>Payment refused</title>
    <desc>Payment refused warning icon</desc>
    <g id="Page-1" stroke="none" stroke-width="1" fill="none" fill-rule="evenodd">
        <circle id="Oval" stroke="#E54425" stroke-width="4.1" cx="46.31" cy="46.46" r="44.04"></circle>
        <path d="M52,65.5 C52,68.5327 49.5327,71 46.5,71 C43.4673,71 41,68.5327 41,65.5 C41,62.4673 43.4673,60 46.5,60 C49.5327,60 52,62.4673 52,65.5 Z" id="Path" fill="#E54425" fill-rule="nonzero"></path>
        <path d="M41.636625,24.3624063 L42.571625,49.8624063 C42.6155562,51.059875 43.3403187,52 44.2195625,52 L48.7804375,52 C49.6596812,52 50.3844437,51.059875 50.428375,49.8624063 L51.363375,24.3624063 C51.4104687,23.0771875 50.6591,22 49.7154375,22 L43.2845625,22 C42.3409,22 41.5895313,23.0771875 41.636625,24.3624063 Z" id="Path" fill="#E54425" fill-rule="nonzero"></path>
    </g>
</svg>