<?xml version="1.0" encoding="UTF-8"?>
<svg width="93px" height="93px" viewBox="0 0 93 93" version="1.1" xmlns="http://www.w3.org/2000/svg" xmlns:xlink="http://www.w3.org/1999/xlink">
    <g id="Page-1" stroke="none" stroke-width="1" fill="none" fill-rule="evenodd">
        <g id="payment-pending" transform="translate(2.000000, 2.000000)" stroke="#0086FF">
            <circle id="Oval" stroke-width="4.1" cx="44.31" cy="44.46" r="44.04"></circle>
            <path d="M56.8332818,25 C57.4776108,25 58.0000556,25.529118 58.0000556,26.1818182 L58.0000556,33.1943595 C58.0035676,33.6814565 57.8354376,34.1477738 57.5356452,34.5017229 L57.3402909,34.6998755 L44,44 L57.3007152,53.6365558 C57.641736,53.9501699 57.8928611,54.3831713 57.9730153,54.8549767 L58.0000556,55.1420718 L58.0000556,62.2272727 L58.0000556,62.8181818 C58.0000556,63.470882 57.4776108,64 56.8332818,64 L31.1667457,64 C30.5224167,64 29.9999182,63.470882 29.9999182,62.8181818 L29.9999182,61.6363636 L29.9999182,55.1420718 C29.9956657,54.6547798 30.1637971,54.1881243 30.4640687,53.8344581 L30.6597656,53.6365558 L44,44 L30.6795533,34.6998755 C30.3343837,34.3897251 30.1092532,33.9554818 30.0414585,33.4822769 L30.0199604,33.1943595 L30.0188815,27.5760696 C30.0065336,27.5071552 29.9999182,27.4361586 29.9999182,27.3636364 L29.9999182,26.1818182 C29.9999182,25.529118 30.5224167,25 31.1667457,25 L56.8332818,25 Z" id="Combined-Shape" stroke-width="6"></path>
        </g>
    </g>
</svg>