<?xml version="1.0" encoding="utf-8"?>
<!DOCTYPE svg PUBLIC "-//W3C//DTD SVG 1.1//EN" "http://www.w3.org/Graphics/SVG/1.1/DTD/svg11.dtd"><svg id="icon_layer" data-name="icon_layer" xmlns="http://www.w3.org/2000/svg" viewBox="0 0 92.67 92.67"><defs><style>.cls-1{fill:none;stroke:#666;stroke-miterlimit:10;stroke-width:4.1px;}.cls-2{fill:#666;}</style></defs><title>payment failed</title><circle class="cls-1" cx="46.31" cy="46.46" r="44.04"/><path class="cls-2" d="M66,61.13,51.3,46.46,66,31.8a1.84,1.84,0,0,0,0-2.57l-2.42-2.42a1.82,1.82,0,0,0-2.57,0L46.31,41.48,31.65,26.81a1.82,1.82,0,0,0-2.57,0l-2.42,2.42a1.82,1.82,0,0,0,0,2.57L41.33,46.46,26.66,61.13a1.82,1.82,0,0,0,0,2.57l2.42,2.42a1.84,1.84,0,0,0,2.57,0L46.31,51.45,61,66.12a1.84,1.84,0,0,0,2.57,0L66,63.7A1.84,1.84,0,0,0,66,61.13Z"/></svg>